<svg width="50" height="52" viewBox="0 0 50 52" fill="none" xmlns="http://www.w3.org/2000/svg">
<path d="M25 51.5C38.8071 51.5 50 40.0833 50 26C50 11.9167 38.8071 0.5 25 0.5C11.1929 0.5 0 11.9167 0 26C0 40.0833 11.1929 51.5 25 51.5Z" fill="black"/>
<path fill-rule="evenodd" clip-rule="evenodd" d="M16.388 21.1656H17.4881V20.8791C17.4881 20.496 17.5566 20.1307 17.6792 19.7977C17.8081 19.4521 17.9944 19.1388 18.2284 18.8773C18.4609 18.6159 18.7395 18.4047 19.0468 18.2596C19.3429 18.12 19.6677 18.043 20.0084 18.043H24.3834V16.7162C24.3118 16.6876 24.2449 16.65 24.1797 16.6088C24.0889 16.5479 24.0045 16.4745 23.9313 16.3921C23.8167 16.2632 23.7243 16.1092 23.6606 15.9373C23.6001 15.7726 23.5667 15.59 23.5667 15.402C23.5667 15.2122 23.6001 15.0313 23.6606 14.8666C23.7243 14.6947 23.8167 14.5389 23.9313 14.41C24.0459 14.2811 24.1828 14.1773 24.3357 14.1056C24.4822 14.0358 24.6445 14 24.8117 14C24.9789 14 25.1413 14.0376 25.2877 14.1056C25.4406 14.1773 25.5791 14.2811 25.6937 14.41C25.8084 14.5389 25.9007 14.6929 25.9644 14.8666C26.0249 15.0313 26.0583 15.214 26.0583 15.402C26.0583 15.5918 26.0249 15.7726 25.9644 15.9373C25.9007 16.1092 25.8084 16.265 25.6937 16.3921L25.6874 16.3993C25.6141 16.4799 25.5329 16.5515 25.4438 16.6106C25.3785 16.6535 25.31 16.6911 25.24 16.718V18.0448H29.615C29.9558 18.0448 30.2805 18.1218 30.5767 18.2614C30.8855 18.4064 31.1626 18.6159 31.395 18.8791C31.6274 19.1406 31.8153 19.4539 31.9443 19.7995C32.0685 20.1343 32.1353 20.4978 32.1353 20.8809V21.1674H33.1957C33.3421 21.1674 33.4854 21.1996 33.6144 21.2605C33.7497 21.3232 33.8691 21.4145 33.9694 21.5291L33.9758 21.5363C34.0745 21.6491 34.1541 21.7816 34.2082 21.9302C34.2624 22.077 34.291 22.2346 34.291 22.4011V25.692C34.291 25.8568 34.2624 26.0179 34.2082 26.1629C34.1525 26.3133 34.0713 26.4494 33.9694 26.5622C33.772 26.7842 33.4966 26.9239 33.1941 26.9239H32.1321C32.1274 27.291 32.0589 27.6437 31.9395 27.966C31.8105 28.3133 31.6243 28.6249 31.3902 28.8863C31.1578 29.1477 30.8792 29.359 30.5719 29.504C30.2742 29.6437 29.951 29.7189 29.6103 29.7189H27.9258V34.4709H30.5814C30.5958 34.4458 30.6101 34.419 30.626 34.3939C30.6579 34.342 30.6929 34.2954 30.7311 34.2507C30.8139 34.1576 30.9142 34.0806 31.0272 34.0286C31.1355 33.9785 31.2533 33.9517 31.3759 33.9517C31.4969 33.9517 31.6179 33.9785 31.7246 34.0286C31.8376 34.0806 31.9363 34.1576 32.0207 34.2507C32.1035 34.3438 32.1719 34.4566 32.2181 34.5837C32.2627 34.7055 32.2866 34.838 32.2866 34.9758C32.2866 35.1137 32.2611 35.2444 32.2181 35.3679C32.1719 35.4951 32.1035 35.6079 32.0207 35.701C31.9379 35.7941 31.8376 35.8711 31.7246 35.923C31.6163 35.9731 31.4985 36 31.3759 36C31.2565 36 31.1419 35.9749 31.0336 35.9248L31.0272 35.923C30.9142 35.8711 30.8155 35.7941 30.7311 35.701C30.6802 35.6437 30.634 35.5756 30.5958 35.5058C30.5751 35.4664 30.5544 35.4235 30.5401 35.3805H27.5199C27.4068 35.3805 27.3065 35.3286 27.2317 35.2462C27.1553 35.162 27.1107 35.0474 27.1107 34.9203V29.7189H25.1349V34.0573C25.1652 34.0752 25.1954 34.0931 25.2241 34.1146C25.2782 34.1522 25.3291 34.2005 25.3737 34.2489C25.4581 34.3438 25.525 34.4548 25.5711 34.5819C25.6157 34.7037 25.6396 34.8362 25.6396 34.974C25.6396 35.1083 25.6173 35.2372 25.5727 35.359L25.5711 35.3662C25.525 35.4933 25.4565 35.6043 25.3737 35.6992C25.2909 35.7923 25.1906 35.8693 25.0776 35.9212C24.9693 35.9714 24.8515 35.9982 24.7289 35.9982C24.6063 35.9982 24.4885 35.9696 24.3803 35.9212C24.2672 35.8693 24.1669 35.7923 24.0841 35.6992C24.0013 35.6061 23.9329 35.4933 23.8867 35.3662C23.8437 35.2444 23.8182 35.1119 23.8182 34.974C23.8182 34.8397 23.8405 34.7108 23.8851 34.5891L23.8867 34.5819C23.9329 34.4548 24.0013 34.3438 24.0841 34.2489C24.1271 34.1987 24.1765 34.1558 24.229 34.1182L24.2354 34.1128C24.264 34.0949 24.2943 34.077 24.3245 34.0591V29.7189H21.688V32.1128C21.688 32.2399 21.6419 32.3527 21.5686 32.4351C21.4938 32.5192 21.3935 32.5694 21.2805 32.5694H19.4113C19.397 32.6016 19.3811 32.6303 19.3636 32.6625C19.3317 32.7162 19.2951 32.7681 19.2521 32.8147L19.2442 32.8218C19.1614 32.915 19.0611 32.9919 18.948 33.0439C18.8398 33.094 18.722 33.1209 18.5994 33.1209C18.48 33.1209 18.3653 33.094 18.2571 33.0457L18.2507 33.0439C18.1377 32.9919 18.039 32.915 17.9546 32.8218C17.8718 32.7287 17.8033 32.6159 17.7572 32.4888C17.7126 32.3671 17.6887 32.2346 17.6887 32.0967C17.6887 31.9606 17.7142 31.8263 17.7572 31.7028C17.8033 31.5756 17.8718 31.4628 17.9546 31.3697C18.0406 31.2784 18.144 31.2014 18.2571 31.1495C18.3653 31.0994 18.4832 31.0725 18.6057 31.0725C18.7299 31.0725 18.8477 31.1012 18.9544 31.1495C19.0627 31.2014 19.1614 31.2748 19.2426 31.3679L19.249 31.3733C19.2951 31.4252 19.3381 31.4843 19.3731 31.547C19.3906 31.581 19.4098 31.6168 19.4257 31.6562H20.8761V29.7189H20.01C19.6693 29.7189 19.3445 29.6419 19.0483 29.504C18.7395 29.359 18.4625 29.1495 18.23 28.8863C17.996 28.6249 17.8081 28.3115 17.6792 27.966C17.5597 27.6437 17.4929 27.291 17.4881 26.9239H16.388C16.2415 26.9239 16.0982 26.8917 15.9692 26.8308C15.8339 26.7681 15.7145 26.6768 15.6142 26.5622L15.6078 26.5551C15.5091 26.4423 15.4295 26.3098 15.3754 26.1611C15.3197 26.0161 15.291 25.855 15.291 25.6902V22.3993C15.291 22.2346 15.3197 22.0734 15.3754 21.9284C15.4311 21.778 15.5123 21.6419 15.6142 21.5291C15.7145 21.4163 15.8355 21.3232 15.9692 21.2605C16.0982 21.1996 16.2399 21.1656 16.388 21.1656ZM22.5605 26.4602C22.5382 26.4405 22.5207 26.4208 22.5032 26.3957C22.4522 26.3259 22.4252 26.2453 22.4236 26.1647C22.422 26.0824 22.4459 26.0018 22.4936 25.9302C22.5111 25.9051 22.5287 25.8836 22.5525 25.8621C22.6337 25.7869 22.7404 25.7475 22.8455 25.7457C22.9506 25.744 23.0556 25.778 23.14 25.8496C23.4282 26.0985 23.7116 26.2793 23.9934 26.3993C24.272 26.5175 24.5474 26.573 24.8197 26.5694C25.0935 26.5658 25.3705 26.5013 25.6539 26.3814C25.9405 26.2596 26.2271 26.077 26.52 25.8424C26.606 25.7726 26.7127 25.7422 26.8177 25.7475C26.9228 25.7529 27.0279 25.7941 27.1075 25.8729C27.1282 25.8944 27.1457 25.9158 27.1632 25.9427C27.2094 26.0161 27.2317 26.0985 27.2269 26.1808C27.2221 26.2632 27.1935 26.342 27.1409 26.41C27.1218 26.4333 27.1011 26.4548 27.0757 26.4745C26.7095 26.7717 26.3417 26.9973 25.9676 27.1531C25.5934 27.3071 25.2145 27.3894 24.8308 27.3948C24.4455 27.4002 24.065 27.3268 23.6861 27.1728C23.3104 27.0206 22.9362 26.7842 22.5685 26.4673L22.5605 26.4602ZM21.5973 21.1406C21.6896 21.1406 21.7836 21.1513 21.8711 21.171C21.9603 21.1925 22.0494 21.2211 22.1338 21.2605C22.2198 21.2999 22.3026 21.35 22.3774 21.4073C22.4522 21.4628 22.5207 21.5255 22.5828 21.5953L22.5923 21.6043C22.6576 21.6777 22.7165 21.7565 22.7675 21.8442L22.7707 21.8496C22.82 21.9338 22.863 22.0233 22.898 22.12C22.933 22.2149 22.9601 22.3151 22.9776 22.4154C22.9951 22.5157 23.0063 22.6195 23.0063 22.7234C23.0063 22.8272 22.9967 22.9329 22.9776 23.0313C22.9601 23.1316 22.933 23.2301 22.898 23.3286C22.863 23.4252 22.8184 23.5184 22.7675 23.6025C22.613 23.8639 22.3917 24.0662 22.1338 24.1844C22.0494 24.2238 21.9603 24.2543 21.8695 24.2757C21.7804 24.2954 21.688 24.3044 21.5957 24.3044C21.5033 24.3044 21.4094 24.2936 21.3219 24.2757C21.2327 24.2543 21.1435 24.2256 21.0576 24.1844C20.9716 24.145 20.8888 24.0949 20.8124 24.0376C20.7328 23.9785 20.6627 23.9123 20.599 23.8406C20.5338 23.7672 20.4749 23.6885 20.4239 23.6007L20.4207 23.5953C20.3714 23.5112 20.3284 23.4217 20.2934 23.325C20.2583 23.2301 20.2313 23.1298 20.2122 23.0295C20.1947 22.9293 20.1867 22.8254 20.1867 22.7216C20.1867 22.6177 20.1962 22.5121 20.2122 22.4136C20.2313 22.3133 20.2567 22.2131 20.2934 22.1182C20.3284 22.0215 20.373 21.9284 20.4239 21.8442C20.4765 21.7547 20.5354 21.6759 20.599 21.6043C20.6643 21.5309 20.7344 21.4646 20.8124 21.4073L20.8172 21.4038C20.892 21.3483 20.9716 21.2999 21.0576 21.2605C21.1419 21.2211 21.2311 21.1907 21.3203 21.171C21.411 21.1513 21.5034 21.1406 21.5973 21.1406ZM28.0277 21.1406C28.1201 21.1406 28.214 21.1513 28.3016 21.171C28.3907 21.1925 28.4799 21.2211 28.5643 21.2605C28.6502 21.2999 28.733 21.35 28.8079 21.4073C28.8811 21.4628 28.948 21.5237 29.0101 21.5936C29.0132 21.5971 29.018 21.6007 29.0212 21.6043C29.0865 21.6777 29.1454 21.7565 29.1963 21.8442L29.1995 21.8496C29.2489 21.9338 29.2919 22.0233 29.3269 22.12C29.3619 22.2149 29.389 22.3151 29.4081 22.4154C29.4256 22.5157 29.4335 22.6195 29.4335 22.7234C29.4335 22.8272 29.424 22.9329 29.4081 23.0313C29.389 23.1316 29.3635 23.2319 29.3269 23.3286C29.2919 23.4252 29.2473 23.5184 29.1963 23.6025C29.1438 23.692 29.0849 23.7708 29.0212 23.8424C28.9559 23.9158 28.8859 23.9821 28.8079 24.0394L28.8031 24.043C28.7267 24.0985 28.6486 24.1468 28.5627 24.1862C28.4783 24.2256 28.3891 24.256 28.2984 24.2775C28.2092 24.2972 28.1169 24.3062 28.0246 24.3062C27.9322 24.3062 27.8383 24.2954 27.7507 24.2775C27.6616 24.256 27.5724 24.2274 27.4864 24.1862C27.3989 24.145 27.3161 24.0949 27.2428 24.0394L27.2349 24.0322C27.16 23.9749 27.0916 23.9123 27.0295 23.8424C26.9642 23.769 26.9053 23.6902 26.8544 23.6025L26.8512 23.5971C26.8018 23.513 26.7588 23.4235 26.7238 23.3268C26.6888 23.2319 26.6617 23.1316 26.6426 23.0313C26.6251 22.9311 26.6156 22.8272 26.6156 22.7234C26.6156 22.6195 26.6251 22.5139 26.6426 22.4154C26.6617 22.3151 26.6872 22.2149 26.7238 22.12C26.7588 22.0233 26.8034 21.9302 26.8544 21.846C26.9069 21.7565 26.9658 21.6777 27.0295 21.6061C27.0932 21.5345 27.1648 21.4682 27.2428 21.4091C27.3193 21.3518 27.4005 21.3035 27.4864 21.2605C27.5708 21.2211 27.66 21.1907 27.7491 21.171C27.8431 21.1513 27.9354 21.1406 28.0277 21.1406ZM18.1042 21.5148V26.8845C18.1042 27.1728 18.1552 27.4485 18.2475 27.701C18.3446 27.9624 18.4863 28.1987 18.6615 28.3975C18.8382 28.5962 19.0483 28.7556 19.2808 28.863C19.5037 28.9669 19.7489 29.0242 20.0068 29.0242H29.6166C29.873 29.0242 30.1181 28.9669 30.3426 28.863C30.5751 28.7538 30.7852 28.5944 30.962 28.3975C31.1387 28.1987 31.2804 27.9624 31.3759 27.701C31.4682 27.4503 31.5192 27.1746 31.5192 26.8845V20.8791C31.5192 20.5909 31.4682 20.3133 31.3759 20.0627C31.2788 19.8013 31.1371 19.5649 30.962 19.3662C30.7852 19.1674 30.5751 19.0081 30.3426 18.9006C30.1197 18.7968 29.8746 18.7395 29.6166 18.7395H20.0084C19.7521 18.7395 19.5069 18.7968 19.2824 18.9006C19.0499 19.0098 18.8398 19.1692 18.6631 19.3662C18.4863 19.5649 18.3446 19.8013 18.2491 20.0627C18.1568 20.3133 18.1058 20.5891 18.1058 20.8791L18.1042 21.5148ZM17.4865 21.8603H16.388C16.3227 21.8603 16.2606 21.8747 16.2049 21.8997C16.146 21.9284 16.0934 21.9678 16.0489 22.0179L16.0425 22.0233C16.0011 22.0716 15.9661 22.1289 15.9438 22.1916C15.9199 22.2543 15.9087 22.3241 15.9087 22.3975V25.6885C15.9087 25.7619 15.9215 25.8317 15.9438 25.8944C15.9692 25.9606 16.0043 26.0197 16.0489 26.0698C16.1348 26.1665 16.2542 26.2274 16.3864 26.2274H17.4865V21.8603ZM33.1988 21.8603H32.1385V26.2274H33.1988C33.2641 26.2274 33.3262 26.2131 33.3819 26.188C33.4408 26.1594 33.4934 26.12 33.538 26.0698C33.5825 26.0197 33.6192 25.9606 33.643 25.8944C33.6669 25.8317 33.6781 25.7619 33.6781 25.6885V22.3993C33.6781 22.3259 33.6653 22.256 33.643 22.1934C33.6176 22.1271 33.5825 22.068 33.538 22.0179C33.4934 21.9678 33.4408 21.9266 33.3819 21.8997C33.3262 21.8765 33.2641 21.8603 33.1988 21.8603Z" fill="white"/>
</svg>
