<svg width="51" height="51" viewBox="0 0 51 51" fill="none" xmlns="http://www.w3.org/2000/svg">
<path d="M25.1455 51C38.9526 51 50.1455 39.5833 50.1455 25.5C50.1455 11.4167 38.9526 0 25.1455 0C11.3384 0 0.145508 11.4167 0.145508 25.5C0.145508 39.5833 11.3384 51 25.1455 51Z" fill="black"/>
<path fill-rule="evenodd" clip-rule="evenodd" d="M25.6461 14C26.7424 14 27.6738 15.4238 28.2947 17.7246C28.5101 18.5234 28.6944 19.4355 28.8399 20.4336C29.7713 20.0625 30.6484 19.7676 31.442 19.5547C33.7297 18.9453 35.4198 19.0469 35.9689 20.002C36.5161 20.957 35.7574 22.4805 34.0887 24.1699C33.5105 24.7559 32.8177 25.373 32.0299 26C32.3443 26.25 32.645 26.5 32.9283 26.7461C32.6703 26.9277 32.4588 27.168 32.3113 27.4492C31.9853 27.166 31.636 26.8789 31.2674 26.5879C31.1917 26.6445 31.1141 26.7012 31.0365 26.7598C30.8696 27.9688 30.3108 29.0508 29.4939 29.873L29.4473 29.916C29.3037 30.0566 29.1543 30.1895 28.9971 30.3125C28.9874 30.4102 28.9758 30.5078 28.9641 30.6055C29.9401 31.0039 30.856 31.3164 31.6787 31.5352C33.5434 32.0312 34.8493 32.0684 35.1598 31.5293C35.3247 31.2422 35.2083 30.791 34.861 30.2246C35.1423 30.1016 35.3907 29.9141 35.5886 29.6816C36.1494 30.6055 36.3065 31.4082 35.9689 31.9961C35.4217 32.9531 33.7336 33.0547 31.4439 32.4453C30.6503 32.2344 29.7733 31.9375 28.8399 31.5664C28.6944 32.5645 28.5101 33.4766 28.2947 34.2754C27.6738 36.5762 26.7424 38 25.6461 38C24.5498 38 23.6184 36.5762 22.9975 34.2754C22.7821 33.4766 22.5977 32.5645 22.4522 31.5664C22.1146 31.7012 21.7847 31.8262 21.4645 31.9395C21.4393 31.6133 21.3365 31.3105 21.1754 31.0469C21.548 30.9141 21.9322 30.7676 22.328 30.6055C22.3164 30.5098 22.3067 30.4121 22.295 30.3145C22.1223 30.1777 21.9574 30.0312 21.8022 29.875L21.7983 29.8711C20.9814 29.0488 20.4226 27.9668 20.2557 26.7578C20.1781 26.7012 20.1005 26.6426 20.0248 26.5859C19.1924 27.2383 18.4647 27.8809 17.8651 28.4883C16.503 29.8711 15.818 30.9922 16.1285 31.5332C16.3012 31.834 16.7824 31.9551 17.4965 31.918C17.4906 31.9766 17.4887 32.0371 17.4887 32.0977C17.4887 32.3535 17.5372 32.5977 17.6226 32.8223C16.4836 32.873 15.6706 32.6113 15.3213 32.002C14.7741 31.0449 15.5328 29.5215 17.2015 27.832C17.7817 27.2461 18.4725 26.6289 19.2603 26.002C18.4744 25.375 17.7817 24.7578 17.2015 24.1719C15.5328 22.4824 14.7741 20.959 15.3213 20.0039C15.8704 19.0488 17.5586 18.9473 19.8482 19.5566C20.6418 19.7676 21.5189 20.0625 22.4522 20.4355C22.5046 20.0742 22.5628 19.7246 22.6249 19.3887C22.8946 19.5254 23.1973 19.6016 23.5194 19.6016H23.5369C23.4651 19.9863 23.4011 20.3906 23.3428 20.8086C23.4302 20.8457 23.5155 20.8848 23.6029 20.9238C24.2335 20.666 24.9223 20.5234 25.6441 20.5234C26.366 20.5234 27.0567 20.666 27.6874 20.9219C27.7727 20.8828 27.8601 20.8457 27.9454 20.8086C27.7999 19.7559 27.6117 18.8008 27.3885 17.9746C26.884 16.1035 26.2631 14.9453 25.6441 14.9453C25.3007 14.9453 24.9553 15.3027 24.6313 15.9395C24.3809 15.7695 24.0918 15.6543 23.7775 15.6133C24.3072 14.584 24.9417 14 25.6461 14ZM25.6461 22.8281C27.016 22.8281 28.1278 23.3516 28.1278 23.9961C28.1278 24.6426 27.016 25.1641 25.6461 25.1641C24.2762 25.1641 23.1643 24.6406 23.1643 23.9961C23.1643 23.3516 24.2762 22.8281 25.6461 22.8281ZM23.1643 27.2109V28.1074C23.6067 29.6855 27.9668 29.3809 28.1278 28.0273V27.1309C27.9105 28.6172 23.5136 28.7246 23.1643 27.2109ZM23.1527 24.5586V25.4355C23.5951 26.9766 27.9804 26.7695 28.1414 25.4473V24.5723C27.9221 26.0234 23.502 26.0371 23.1527 24.5586ZM23.1527 25.8496V26.7461C23.5951 28.3242 27.9804 28.1113 28.1414 26.7578V25.8613C27.9221 27.3477 23.502 27.3633 23.1527 25.8496ZM25.6461 21.3066C28.221 21.3066 30.3088 23.4082 30.3088 26C30.3088 28.5918 28.221 30.6934 25.6461 30.6934C23.0712 30.6934 20.9833 28.5918 20.9833 26C20.9833 23.4082 23.0712 21.3066 25.6461 21.3066ZM28.9971 21.6836C29.1718 21.8203 29.3386 21.9688 29.4939 22.127C30.3108 22.9492 30.8696 24.0332 31.0365 25.2422C31.1141 25.2988 31.1917 25.3555 31.2674 25.4141C32.0998 24.7617 32.8274 24.1191 33.427 23.5117C34.7853 22.1348 35.4702 21.0137 35.1617 20.4727C34.8513 19.9336 33.5454 19.9707 31.6807 20.4668C30.8579 20.6855 29.9421 20.998 28.9661 21.3984C28.9758 21.4902 28.9874 21.5879 28.9971 21.6836ZM27.6815 31.082C27.0529 31.3379 26.366 31.4785 25.648 31.4785C24.9281 31.4785 24.2412 31.3379 23.6126 31.0801C23.5233 31.1191 23.434 31.1602 23.3448 31.1973C23.4903 32.25 23.6785 33.2051 23.9017 34.0312C24.4062 35.9023 25.0271 37.0605 25.648 37.0605C26.267 37.0605 26.8899 35.9023 27.3924 34.0312C27.6136 33.2051 27.8018 32.248 27.9474 31.1973C27.8581 31.1602 27.7689 31.1211 27.6815 31.082ZM20.2576 25.2383C20.4245 24.0313 20.9833 22.9473 21.8002 22.127L21.8468 22.084C21.9885 21.9453 22.1379 21.8125 22.2931 21.6895C22.3028 21.5918 22.3144 21.4941 22.3261 21.3965C21.3481 20.998 20.4342 20.6855 19.6115 20.4648C17.7468 19.9687 16.4409 19.9316 16.1304 20.4707C15.818 21.0117 16.503 22.1328 17.8632 23.5098C18.4628 24.1172 19.1904 24.7598 20.0228 25.4121C20.1005 25.3535 20.1781 25.2969 20.2576 25.2383ZM33.9276 27.0371C34.6398 27.0371 35.218 27.6191 35.218 28.3359C35.218 29.0527 34.6398 29.6348 33.9276 29.6348C33.2155 29.6348 32.6373 29.0527 32.6373 28.3359C32.6373 27.6191 33.2136 27.0371 33.9276 27.0371ZM19.4815 30.7578C20.1936 30.7578 20.7718 31.3398 20.7718 32.0566C20.7718 32.7734 20.1936 33.3555 19.4815 33.3555C18.7694 33.3555 18.1911 32.7734 18.1911 32.0566C18.1911 31.3398 18.7694 30.7578 19.4815 30.7578ZM23.5175 16.2969C24.2296 16.2969 24.8078 16.8789 24.8078 17.5957C24.8078 18.3125 24.2296 18.8945 23.5175 18.8945C22.8054 18.8945 22.2271 18.3125 22.2271 17.5957C22.2271 16.8789 22.8054 16.2969 23.5175 16.2969Z" fill="white"/>
</svg>
