<svg width="50" height="52" viewBox="0 0 50 52" fill="none" xmlns="http://www.w3.org/2000/svg">
<path d="M50 26C50 40.0833 38.8071 51.5 25 51.5C11.1929 51.5 0 40.0833 0 26C0 11.9167 11.1929 0.5 25 0.5C38.8071 0.5 50 11.9167 50 26Z" fill="black"/>
<path d="M15.949 31.5V29.823H17.47V24.077H15.949V22.4H20.928V24.077H19.42V29.823H20.928V31.5H15.949Z" fill="white"/>
<path d="M23.4799 31.643C23.1505 31.643 22.8949 31.5477 22.7129 31.357C22.5309 31.1663 22.4399 30.8933 22.4399 30.538C22.4399 30.2087 22.5352 29.94 22.7259 29.732C22.9165 29.524 23.1679 29.42 23.4799 29.42C23.8179 29.42 24.0779 29.5197 24.2599 29.719C24.4419 29.9097 24.5329 30.1827 24.5329 30.538C24.5329 30.8673 24.4332 31.136 24.2339 31.344C24.0432 31.5433 23.7919 31.643 23.4799 31.643Z" fill="white"/>
<path d="M25.1968 31.5L28.7718 22.4H30.5138L34.0628 31.5H32.0738L30.2278 26.599C30.1758 26.4517 30.1108 26.2697 30.0328 26.053C29.9634 25.8363 29.8898 25.6067 29.8118 25.364C29.7338 25.1213 29.6601 24.8917 29.5908 24.675C29.5301 24.4497 29.4781 24.2677 29.4348 24.129L29.7858 24.116C29.7338 24.3067 29.6731 24.5103 29.6038 24.727C29.5431 24.935 29.4738 25.1517 29.3958 25.377C29.3264 25.6023 29.2528 25.819 29.1748 26.027C29.1054 26.235 29.0361 26.4343 28.9668 26.625L27.1338 31.5H25.1968ZM26.8608 29.589L27.5108 28.003H31.6578L32.3208 29.589H26.8608Z" fill="white"/>
</svg>
