<svg xmlns="http://www.w3.org/2000/svg" width="82" height="32" viewBox="0 0 82 32" fill="none">
  <path d="M14.891 20.8933C15.1114 18.3465 14.5972 15.4918 14.891 12.9759C15.1195 10.4776 14.8446 7.77851 14.891 5.0584C15.2261 3.12128 13.515 -0.0101224 11.8632 1.9244C10.1994 3.88617 11.7798 6.86182 11.3172 9.23705C10.8546 11.6123 11.6845 14.7925 11.3172 17.1545C10.9518 19.5165 13.0267 21.0407 14.891 20.8933Z" fill="white"/>
  <path d="M0 2.41922V21.773C1.70353 24.421 4.15559 22.49 3.7724 19.5737C3.7724 16.7146 3.8955 13.3035 3.97094 10.5566C6.66722 15.074 8.45414 24.2846 14.6925 23.7524C20.9308 23.2201 24.8522 18.7908 29.7324 15.1201C34.6127 11.4473 38.5618 7.97244 44.3197 5.98648C50.0796 4.00271 58.3153 4.33481 63.7773 6.98935C69.2394 9.6417 73.3513 12.3578 77.632 16.9346C72.0409 24.3704 64.6331 30.6515 55.9903 31.8898C66.0686 32.996 75.4519 25.6174 81.4044 16.9346C81.5116 16.6838 81.732 16.5387 81.8014 16.2748C81.4897 16.0636 81.1562 15.7645 81.0073 15.3951C72.9403 8.33972 64.7562 0.736763 54.2034 0H50.6295C46.9147 0.477247 42.3223 1.8782 39.0542 3.89275C35.7842 5.9051 32.9846 8.23415 30.2288 10.8315C27.473 13.4267 25.003 16.2352 22.1777 18.4081C19.3524 20.581 14.2041 23.4093 11.4661 20.2885C8.73012 17.1655 8.34891 12.0323 7.0107 8.50906C5.67051 4.9858 3.79622 -0.939098 0 2.41922Z" fill="white"/>
  <path d="M14.9903 20.8933C15.2107 18.3465 14.9903 15.3951 14.9903 12.9758C14.7918 10.6666 15.0896 7.68806 14.7918 5.05838C14.986 2.53611 13.0931 0.0269406 11.5654 1.93387C9.90156 3.89564 10.7216 6.81781 10.7216 9.24652C10.7216 11.4363 10.8208 14.8452 11.0194 17.164C10.6541 19.526 13.126 21.0406 14.9903 20.8933Z" fill="white"/>
  <path d="M28.7894 10.9965C23.6172 6.69245 15.4053 12.8725 18.0678 19.7936C19.2452 19.6683 20.1744 18.6544 21.2446 18.2541C20.4981 16.4375 21.866 13.3585 23.8257 13.1958C25.7854 13.033 27.9595 13.6686 28.7894 10.9965Z" fill="white"/>
  <path d="M50.2324 10.5566C49.5554 10.4796 48.7254 10.4796 48.0484 10.5566C46.3389 11.1262 45.3203 12.1841 43.8134 10.8491C42.3084 9.51412 40.2276 10.7017 38.7167 10.9964C36.3659 9.24141 35.8596 12.0499 35.937 14.5153C36.0144 16.9807 36.1534 19.7584 35.937 22.4328C35.7206 25.1071 38.9728 25.6349 39.3123 23.0926C39.6518 20.5502 38.8775 17.6449 39.3282 15.4126C39.7789 13.1803 43.1403 13.2793 43.6148 15.4676C44.0893 17.6559 43.1999 20.8647 43.6863 23.3059C44.1707 25.7493 46.9862 24.8432 47.0556 22.4328C47.1251 20.0223 46.2932 16.9213 47.3038 14.7902C48.3125 12.6591 51.3641 14.1436 51.2251 16.4947C51.3712 18.808 50.86 21.5412 51.4733 23.9173C52.476 26.2419 54.8983 24.2648 54.6004 21.3331C54.6004 19.2438 54.8983 16.2748 54.253 13.8005C53.1173 11.7442 52.2159 11.0426 50.2324 10.5566Z" fill="white"/>
  <path d="M50.2324 10.5566C49.5554 10.4796 48.7254 10.4796 48.0484 10.5566C48.8029 10.3718 49.4898 10.374 50.2324 10.5566Z" fill="white"/>
  <path d="M66.1163 10.3367C60.7436 9.37117 55.8474 14.9948 58.1903 20.4358C60.5311 25.8791 66.3823 26.0352 69.9383 22.2678C73.4943 18.5004 70.9032 11.1988 66.1163 10.3367ZM65.5206 13.8555C70.0098 14.8848 67.929 22.6989 63.5352 21.1132C59.1413 19.5275 61.1903 12.8615 65.5206 13.8555Z" fill="white"/>
  <path d="M81.4044 16.9346C81.5414 16.774 81.8412 16.6552 82 16.4947V16.0548C81.6029 16.0482 81.3071 15.6568 81.0073 15.3951C81.1562 15.7645 81.4897 16.0636 81.8014 16.2748C81.732 16.5387 81.5116 16.6838 81.4044 16.9346Z" fill="white"/>
  <path d="M20.4504 22.6527C21.9256 24.3946 23.9825 24.4584 26.0752 24.2648C28.1659 24.0691 29.0872 23.2025 30.6259 21.3881C31.9661 19.8079 32.0058 16.8422 29.798 17.1721C27.5881 17.4998 28.2473 20.8867 25.9442 20.8207C23.641 20.7547 22.3544 21.5927 20.4504 22.6527Z" fill="white"/>
</svg>