<svg width="1440" height="31" viewBox="0 0 1440 31" fill="none" xmlns="http://www.w3.org/2000/svg">
<path d="M1260 14.3606C1318.62 32.5383 1381.38 32.5383 1440 14.3606C1498.62 -3.81714 1561.38 -3.81714 1620 14.3606C1678.62 32.5383 1741.38 32.5383 1800 14.3606C1858.62 -3.81714 1921.38 -3.81714 1980 14.3606C2038.62 32.5383 2101.38 32.5383 2160 14.3606C2218.62 -3.81714 2281.38 -3.81714 2340 14.3606C2398.62 32.5383 2461.38 32.5383 2520 14.3606C2578.62 -3.81714 2641.38 -3.81714 2700 14.3606C2758.62 32.5383 2821.38 32.5383 2880 14.3606V30.7273H0V14.3606C58.6232 -3.81714 121.377 -3.81714 180 14.3606C238.623 32.5383 301.377 32.5383 360 14.3606C418.623 -3.81714 481.377 -3.81714 540 14.3606C598.623 32.5383 661.377 32.5383 720 14.3606C778.623 -3.81714 841.377 -3.81714 900 14.3606C958.623 32.5383 1021.38 32.5383 1080 14.3606C1138.62 -3.81714 1201.38 -3.81714 1260 14.3606Z" fill="#0B165B"/>
</svg>
