<svg width="32" height="35" viewBox="0 0 32 35" fill="none" xmlns="http://www.w3.org/2000/svg">
<path d="M31.9623 17.8671C31.9634 17.8646 31.9628 17.8617 31.9639 17.8593C31.9861 17.8063 32 17.7484 32 17.6864C32 17.6244 31.9862 17.5666 31.9639 17.5136C31.9629 17.5112 31.9634 17.5083 31.9623 17.5058C30.9229 15.1421 29.3231 13.1127 27.3453 11.5106L29.4989 9.18544C29.6091 9.23207 29.7282 9.25992 29.8537 9.25992C30.3926 9.25992 30.8293 8.78824 30.8293 8.20659C30.8293 7.6248 30.3926 7.15326 29.8537 7.15326C29.3149 7.15326 28.8781 7.6248 28.8781 8.20659C28.8781 8.3421 28.9039 8.47074 28.9471 8.58965L26.7054 11.0099C25.0169 9.77177 23.0826 8.83434 20.9958 8.25406L23.8046 5.22148C23.826 5.19844 23.8374 5.16977 23.8528 5.14317C23.9679 5.19474 24.0939 5.22381 24.2262 5.22381C24.765 5.22381 25.2018 4.75227 25.2018 4.17048C25.2018 3.58869 24.765 3.11715 24.2262 3.11715C23.6874 3.11715 23.2506 3.58869 23.2506 4.17048C23.2506 4.3134 23.2775 4.44945 23.3253 4.5737C23.3007 4.59029 23.2742 4.60264 23.2528 4.62568L20.0975 8.0324C18.9 7.76372 17.6588 7.61423 16.3901 7.58803V2.42952C16.7344 2.26686 16.9755 1.89696 16.9755 1.4652C16.9755 0.883406 16.5388 0.411865 15.9999 0.411865C15.461 0.411865 15.0243 0.883406 15.0243 1.4652C15.0243 1.89696 15.2654 2.26685 15.6097 2.42966V7.58817C14.3411 7.61423 13.1 7.76387 11.9026 8.0324L8.74736 4.62568C8.72602 4.60264 8.69947 4.5903 8.67482 4.5737C8.72259 4.44944 8.74952 4.31338 8.74952 4.17048C8.74952 3.58869 8.31276 3.11715 7.7739 3.11715C7.23516 3.11715 6.79827 3.58869 6.79827 4.17048C6.79827 4.75227 7.23516 5.22381 7.7739 5.22381C7.90639 5.22381 8.03228 5.19474 8.14736 5.14317C8.16273 5.16978 8.17404 5.1983 8.19551 5.22148L11.0044 8.25406C8.91731 8.83434 6.98285 9.7718 5.2947 11.0099L3.05304 8.58965C3.09611 8.47074 3.1219 8.34209 3.1219 8.20659C3.1219 7.6248 2.68514 7.15326 2.14628 7.15326C1.60741 7.15326 1.17065 7.6248 1.17065 8.20659C1.17065 8.78824 1.60741 9.25992 2.14628 9.25992C2.27179 9.25992 2.39094 9.23208 2.50108 9.18544L4.6547 11.5106C2.67679 13.1128 1.07709 15.1421 0.0377301 17.5058C0.0365868 17.5083 0.037222 17.5112 0.0360787 17.5136C0.0138478 17.5666 0 17.6244 0 17.6864C0 17.7484 0.0138468 17.8062 0.0360787 17.8593C0.0370949 17.8617 0.0365868 17.8646 0.0377301 17.8671C1.07712 20.2307 2.67685 22.2602 4.6547 23.8623L2.50108 26.1874C2.39094 26.1408 2.27178 26.113 2.14628 26.113C1.60741 26.113 1.17065 26.5845 1.17065 27.1663C1.17065 27.7479 1.60741 28.2196 2.14628 28.2196C2.68514 28.2196 3.1219 27.7479 3.1219 27.1663C3.1219 27.0308 3.09611 26.9021 3.05292 26.7832L5.29457 24.363C6.98311 25.6011 8.91738 26.5385 11.0042 27.1188L8.19538 30.1514C8.17404 30.1744 8.16261 30.2031 8.14724 30.2297C8.03214 30.1781 7.90613 30.1491 7.77377 30.1491C7.23503 30.1491 6.79815 30.6206 6.79815 31.2024C6.79815 31.784 7.23503 32.2557 7.77377 32.2557C8.31264 32.2557 8.74939 31.784 8.74939 31.2024C8.74939 31.0595 8.72246 30.9234 8.67469 30.7992C8.69934 30.7826 8.72576 30.7702 8.74723 30.7472L11.9025 27.3405C13.1 27.6092 14.3412 27.7587 15.6098 27.7848V32.9434C15.2656 33.1059 15.0245 33.4759 15.0245 33.9077C15.0245 34.4893 15.4612 34.961 16.0001 34.961C16.539 34.961 16.9757 34.4893 16.9757 33.9077C16.9757 33.4759 16.7346 33.1059 16.3903 32.9432V27.7847C17.6589 27.7586 18.9 27.609 20.0974 27.3405L23.2526 30.7472C23.274 30.7702 23.3005 30.7826 23.3252 30.7992C23.2774 30.9234 23.2505 31.0595 23.2505 31.2024C23.2505 31.784 23.6872 32.2557 24.2261 32.2557C24.7648 32.2557 25.2017 31.784 25.2017 31.2024C25.2017 30.6206 24.7648 30.1491 24.2261 30.1491C24.0936 30.1491 23.9677 30.1781 23.8526 30.2297C23.8373 30.2031 23.826 30.1746 23.8045 30.1514L20.9956 27.1188C23.0827 26.5385 25.0171 25.6011 26.7053 24.363L28.947 26.7832C28.9039 26.9021 28.8781 27.0308 28.8781 27.1663C28.8781 27.7479 29.3149 28.2196 29.8537 28.2196C30.3926 28.2196 30.8293 27.7479 30.8293 27.1663C30.8293 26.5845 30.3926 26.113 29.8537 26.113C29.7282 26.113 29.6091 26.1408 29.4989 26.1874L27.3453 23.8623C29.3232 22.2601 30.9229 20.2307 31.9623 17.8671ZM30.964 17.2651H21.0732V15.1584H23.8049C23.9086 15.1584 24.0077 15.114 24.0809 15.035L26.7892 12.1109C28.5353 13.5049 29.966 15.2491 30.964 17.2651ZM26.1441 11.6157L23.6432 14.3158H21.0731C21.0731 13.1543 20.1977 12.2092 19.1219 12.2092V10.277L20.3451 8.95635C22.4674 9.48519 24.4368 10.3884 26.1441 11.6157ZM12.878 22.3211C12.2324 22.3211 11.7072 21.7541 11.7072 21.0571V14.3158C11.7072 13.6187 12.2324 13.0518 12.878 13.0518H19.122C19.7676 13.0518 20.2927 13.6187 20.2927 14.3158V21.0571C20.2927 21.7541 19.7676 22.3211 19.122 22.3211H12.878ZM19.4322 8.75067L18.4561 9.80456C18.3828 9.88356 18.3416 9.99054 18.3416 10.1025V12.2091H16.3904V8.43047C17.4268 8.45255 18.4441 8.55934 19.4322 8.75067ZM15.6097 8.43042V12.2091H13.6585V10.1024C13.6585 9.99049 13.6173 9.88351 13.5441 9.80451L12.568 8.75062C13.5559 8.55929 14.5732 8.4525 15.6097 8.43042ZM11.6549 8.95627L12.8781 10.2769V12.2091C11.8022 12.2091 10.9268 13.1542 10.9268 14.3158H8.35669L5.85578 11.6157C7.56312 10.3883 9.53257 9.48512 11.6549 8.95627ZM5.21089 12.1109L7.91925 15.035C7.99242 15.114 8.09151 15.1584 8.19517 15.1584H10.9269V17.2651H1.03606C2.03406 15.2492 3.46479 13.5052 5.21089 12.1109ZM1.03588 18.1079H10.9267V20.2146H8.19499C8.09133 20.2146 7.99225 20.259 7.91907 20.338L5.21072 23.2621C3.46465 21.8681 2.03391 20.1239 1.03588 18.1079ZM5.85578 23.7573L8.35669 21.0571H10.9268C10.9268 22.2187 11.8022 23.1638 12.8781 23.1638V25.096L11.6549 26.4166C9.53251 25.8878 7.56312 24.9846 5.85578 23.7573ZM12.5681 26.6222L13.5442 25.5684C13.6175 25.4894 13.6587 25.3824 13.6587 25.2705V23.1638H15.6099V26.9424C14.5734 26.9204 13.5561 26.8136 12.5681 26.6222ZM16.3905 26.9425V23.1639H18.3418V25.2705C18.3418 25.3824 18.3829 25.4894 18.4561 25.5684L19.4323 26.6223C18.4443 26.8136 17.427 26.9204 16.3905 26.9425ZM20.3454 26.4166L19.1222 25.096V23.1638C20.198 23.1638 21.0734 22.2187 21.0734 21.0572H23.6436L26.1445 23.7573C24.4371 24.9846 22.4677 25.8878 20.3454 26.4166ZM26.7894 23.262L24.081 20.3379C24.0078 20.2589 23.9087 20.2145 23.8051 20.2145H21.0733V18.1078H30.9642C29.9662 20.1237 28.5355 21.8677 26.7894 23.262Z" fill="#06B0F4"/>
<path d="M17.5621 17.6866C17.5621 18.6173 16.8632 19.3719 16.0011 19.3719C15.139 19.3719 14.4401 18.6173 14.4401 17.6866C14.4401 16.7559 15.139 16.0013 16.0011 16.0013C16.8632 16.0013 17.5621 16.7559 17.5621 17.6866Z" fill="#06B0F4"/>
</svg>
