<svg width="36" height="44" viewBox="0 0 36 44" fill="none" xmlns="http://www.w3.org/2000/svg">
<path fill-rule="evenodd" clip-rule="evenodd" d="M2.07843 14.1596H4.1629V13.5972C4.1629 12.845 4.29261 12.128 4.52489 11.4742C4.76923 10.7959 5.12217 10.1808 5.56561 9.66763C6.00603 9.15447 6.53394 8.73972 7.11614 8.45502C7.67723 8.18086 8.29261 8.02973 8.93816 8.02973H17.2278V7.98052V5.42526C17.092 5.36902 16.9653 5.29521 16.8416 5.21437C16.6697 5.09486 16.5098 4.95076 16.371 4.78907C16.1538 4.53601 15.9789 4.23374 15.8582 3.89631C15.7436 3.57295 15.6802 3.21444 15.6802 2.84539C15.6802 2.47282 15.7436 2.11782 15.8582 1.79446C15.9789 1.45704 16.1538 1.15125 16.371 0.898183C16.5882 0.645117 16.8477 0.441258 17.1373 0.300666C17.4148 0.163588 17.7225 0.0932922 18.0392 0.0932922C18.356 0.0932922 18.6637 0.167103 18.9412 0.300666C19.2308 0.441258 19.4932 0.645117 19.7104 0.898183C19.9276 1.15125 20.1026 1.45352 20.2232 1.79446C20.3379 2.11782 20.4012 2.47633 20.4012 2.84539C20.4012 3.21796 20.3379 3.57295 20.2232 3.89631C20.1026 4.23374 19.9276 4.53952 19.7104 4.78907L19.6983 4.80313C19.5596 4.9613 19.4057 5.10189 19.2368 5.21788C19.1131 5.30224 18.9834 5.37605 18.8507 5.42877V7.98404V8.03324H27.1403C27.7858 8.03324 28.4012 8.18438 28.9623 8.45853C29.5475 8.74323 30.0724 9.15447 30.5128 9.67114C30.9532 10.1843 31.3092 10.7994 31.5535 11.4778C31.7888 12.135 31.9155 12.8485 31.9155 13.6007V14.1631H33.9246C34.2021 14.1631 34.4736 14.2263 34.7179 14.3458C34.9744 14.4689 35.2006 14.6481 35.3907 14.8731L35.4027 14.8871C35.5897 15.1086 35.7406 15.3686 35.8431 15.6604C35.9457 15.9486 36 16.2579 36 16.5848V23.045C36 23.3683 35.9457 23.6847 35.8431 23.9694C35.7376 24.2646 35.5837 24.5317 35.3907 24.7532C35.0166 25.189 34.4947 25.4632 33.9216 25.4632H31.9095C31.9005 26.1837 31.7707 26.8761 31.5445 27.5088C31.3002 28.1907 30.9472 28.8022 30.5038 29.3154C30.0634 29.8286 29.5354 30.2433 28.9532 30.528C28.3891 30.8022 27.7768 30.9498 27.1312 30.9498H23.9397V40.2781H28.9713C28.9985 40.2289 29.0256 40.1762 29.0558 40.1269C29.1161 40.025 29.1825 39.9336 29.2549 39.8458C29.4118 39.663 29.6018 39.5119 29.816 39.4099C30.0211 39.3115 30.2443 39.2588 30.4766 39.2588C30.7059 39.2588 30.9351 39.3115 31.1373 39.4099C31.3514 39.5119 31.5385 39.663 31.6983 39.8458C31.8552 40.0285 31.9849 40.25 32.0724 40.4995C32.1569 40.7385 32.2021 40.9986 32.2021 41.2693C32.2021 41.5399 32.1538 41.7965 32.0724 42.039C31.9849 42.2886 31.8552 42.51 31.6983 42.6928C31.5415 42.8755 31.3514 43.0267 31.1373 43.1286C30.9321 43.227 30.7089 43.2797 30.4766 43.2797C30.2504 43.2797 30.0332 43.2305 29.8281 43.1321L29.816 43.1286C29.6018 43.0267 29.4148 42.8755 29.2549 42.6928C29.1584 42.5803 29.0709 42.4467 28.9985 42.3096C28.9593 42.2323 28.9201 42.148 28.8929 42.0636H23.1704C22.9563 42.0636 22.7662 41.9617 22.6244 41.8C22.4796 41.6348 22.3952 41.4099 22.3952 41.1603V30.9498H18.6516V39.4662C18.7089 39.5013 18.7662 39.5365 18.8205 39.5786C18.9231 39.6525 19.0196 39.7473 19.1041 39.8423C19.264 40.0285 19.3906 40.2465 19.4781 40.496C19.5626 40.735 19.6078 40.9951 19.6078 41.2657C19.6078 41.5294 19.5656 41.7824 19.4811 42.0214L19.4781 42.0355C19.3906 42.285 19.2609 42.503 19.1041 42.6892C18.9472 42.872 18.7572 43.0232 18.543 43.1251C18.3379 43.2235 18.1146 43.2762 17.8824 43.2762C17.6501 43.2762 17.4268 43.22 17.2217 43.1251C17.0075 43.0232 16.8175 42.872 16.6606 42.6892C16.5038 42.5065 16.3741 42.285 16.2866 42.0355C16.2051 41.7965 16.1569 41.5364 16.1569 41.2657C16.1569 41.0021 16.1991 40.7491 16.2836 40.5101L16.2866 40.496C16.3741 40.2465 16.5038 40.0285 16.6606 39.8423C16.7421 39.7438 16.8356 39.6595 16.9351 39.5857L16.9472 39.5751C17.0015 39.54 17.0588 39.5048 17.1161 39.4697V30.9498H12.1207V35.6491C12.1207 35.8986 12.0332 36.1201 11.8944 36.2817C11.7526 36.4469 11.5626 36.5454 11.3484 36.5454H7.80694C7.77979 36.6086 7.74962 36.6649 7.71644 36.7281C7.65611 36.8336 7.58673 36.9355 7.50528 37.0269L7.4902 37.041C7.33333 37.2237 7.14329 37.3749 6.92911 37.4768C6.72398 37.5752 6.50075 37.6279 6.26848 37.6279C6.04223 37.6279 5.82504 37.5752 5.61991 37.4803L5.60784 37.4768C5.39367 37.3749 5.20664 37.2237 5.04676 37.041C4.88989 36.8582 4.76018 36.6367 4.6727 36.3872C4.58824 36.1482 4.54299 35.8881 4.54299 35.6175C4.54299 35.3503 4.59125 35.0867 4.6727 34.8442C4.76018 34.5946 4.88989 34.3732 5.04676 34.1904C5.20965 34.0112 5.40573 33.86 5.61991 33.7581C5.82504 33.6597 6.04827 33.607 6.28054 33.607C6.51584 33.607 6.73907 33.6632 6.94118 33.7581C7.14631 33.86 7.33333 34.0042 7.48718 34.1869L7.49925 34.1975C7.58673 34.2994 7.66818 34.4154 7.73454 34.5384C7.76772 34.6052 7.80392 34.6755 7.83409 34.7528H10.5822V30.9498H8.94118C8.29563 30.9498 7.68024 30.7986 7.11916 30.528C6.53394 30.2433 6.00905 29.8321 5.56863 29.3154C5.12519 28.8022 4.76923 28.1871 4.52489 27.5088C4.29864 26.8761 4.17195 26.1837 4.1629 25.4632H2.07843C1.8009 25.4632 1.52941 25.3999 1.28507 25.2804C1.02866 25.1574 0.802413 24.9781 0.612368 24.7532L0.600302 24.7391C0.413273 24.5177 0.262443 24.2576 0.159879 23.9659C0.0542986 23.6812 0 23.3648 0 23.0415V16.5813C0 16.2579 0.0542986 15.9416 0.159879 15.6569C0.26546 15.3616 0.419306 15.0945 0.612368 14.8731C0.802413 14.6516 1.03167 14.4689 1.28507 14.3458C1.52941 14.2263 1.79789 14.1596 2.07843 14.1596ZM13.7738 24.5528C13.7315 24.5142 13.6983 24.4755 13.6652 24.4263C13.5686 24.2892 13.5173 24.1311 13.5143 23.9729C13.5113 23.8112 13.5566 23.653 13.6471 23.5125C13.6802 23.4632 13.7134 23.4211 13.7587 23.3789C13.9125 23.2313 14.1146 23.1539 14.3137 23.1504C14.5128 23.1469 14.7119 23.2137 14.8718 23.3543C15.4178 23.8428 15.9548 24.1978 16.4887 24.4333C17.0166 24.6653 17.5385 24.7743 18.0543 24.7672C18.5732 24.7602 19.098 24.6337 19.635 24.3982C20.178 24.1592 20.721 23.8007 21.276 23.3402C21.4389 23.2032 21.641 23.1434 21.8401 23.1539C22.0392 23.1645 22.2383 23.2453 22.3891 23.4C22.4284 23.4422 22.4615 23.4843 22.4947 23.5371C22.5822 23.6812 22.6244 23.8428 22.6154 24.0045C22.6063 24.1662 22.552 24.3209 22.4525 24.4544C22.4163 24.5001 22.3771 24.5423 22.3288 24.581C21.635 25.1644 20.9382 25.6073 20.2293 25.9131C19.5204 26.2153 18.8024 26.377 18.0754 26.3876C17.3454 26.3981 16.6244 26.254 15.9065 25.9517C15.1946 25.653 14.4857 25.189 13.7888 24.5669L13.7738 24.5528ZM11.9487 14.1103C12.1237 14.1103 12.3017 14.1314 12.4676 14.1701C12.6365 14.2123 12.8054 14.2685 12.9653 14.3458C13.1282 14.4232 13.2851 14.5216 13.4268 14.6341C13.5686 14.743 13.6983 14.866 13.816 15.0031L13.8341 15.0207C13.9578 15.1648 14.0694 15.3194 14.1659 15.4917L14.1719 15.5022C14.2655 15.6674 14.3469 15.8431 14.4133 16.0329C14.4796 16.2192 14.5309 16.4161 14.5641 16.6129C14.5973 16.8097 14.6184 17.0136 14.6184 17.2174C14.6184 17.4213 14.6003 17.6287 14.5641 17.822C14.5309 18.0188 14.4796 18.2121 14.4133 18.4054C14.3469 18.5952 14.2624 18.778 14.1659 18.9432C13.8733 19.4564 13.454 19.8535 12.9653 20.0855C12.8054 20.1628 12.6365 20.2226 12.4646 20.2648C12.2956 20.3034 12.1207 20.321 11.9457 20.321C11.7707 20.321 11.5928 20.2999 11.4268 20.2648C11.2579 20.2226 11.089 20.1664 10.9261 20.0855C10.7632 20.0082 10.6063 19.9098 10.4615 19.7973C10.3107 19.6813 10.178 19.5513 10.0573 19.4107C9.93364 19.2666 9.82202 19.1119 9.72549 18.9397L9.71946 18.9291C9.62594 18.764 9.5445 18.5882 9.47813 18.3984C9.41177 18.2121 9.36048 18.0153 9.32428 17.8185C9.2911 17.6216 9.27602 17.4178 9.27602 17.2139C9.27602 17.0101 9.29412 16.8027 9.32428 16.6094C9.36048 16.4125 9.40875 16.2157 9.47813 16.0294C9.5445 15.8396 9.62896 15.6569 9.72549 15.4917C9.82504 15.3159 9.93665 15.1613 10.0573 15.0207C10.181 14.8766 10.3137 14.7465 10.4615 14.6341L10.4706 14.627C10.6124 14.5181 10.7632 14.4232 10.9261 14.3458C11.086 14.2685 11.2549 14.2088 11.4238 14.1701C11.5958 14.1314 11.7707 14.1103 11.9487 14.1103ZM24.1327 14.1103C24.3077 14.1103 24.4857 14.1314 24.6516 14.1701C24.8205 14.2123 24.9894 14.2685 25.1493 14.3458C25.3122 14.4232 25.4691 14.5216 25.6109 14.6341C25.7496 14.743 25.8763 14.8625 25.994 14.9996C26 15.0066 26.0091 15.0137 26.0151 15.0207C26.1388 15.1648 26.2504 15.3194 26.3469 15.4917L26.3529 15.5022C26.4465 15.6674 26.5279 15.8431 26.5943 16.0329C26.6606 16.2192 26.7119 16.4161 26.7481 16.6129C26.7813 16.8097 26.7964 17.0136 26.7964 17.2174C26.7964 17.4213 26.7783 17.6287 26.7481 17.822C26.7119 18.0188 26.6637 18.2156 26.5943 18.4054C26.5279 18.5952 26.4434 18.778 26.3469 18.9432C26.2474 19.1189 26.1357 19.2736 26.0151 19.4142C25.8914 19.5583 25.7587 19.6883 25.6109 19.8008L25.6018 19.8078C25.457 19.9168 25.3092 20.0117 25.1463 20.089C24.9864 20.1664 24.8175 20.2261 24.6455 20.2683C24.4766 20.307 24.3017 20.3245 24.1267 20.3245C23.9517 20.3245 23.7738 20.3034 23.6078 20.2683C23.4389 20.2261 23.27 20.1699 23.1071 20.089C22.9412 20.0082 22.7843 19.9098 22.6456 19.8008L22.6305 19.7868C22.4887 19.6743 22.359 19.5513 22.2413 19.4142C22.1176 19.2701 22.006 19.1154 21.9095 18.9432L21.9035 18.9327C21.81 18.7675 21.7285 18.5917 21.6621 18.4019C21.5958 18.2156 21.5445 18.0188 21.5083 17.822C21.4751 17.6252 21.457 17.4213 21.457 17.2174C21.457 17.0136 21.4751 16.8062 21.5083 16.6129C21.5445 16.4161 21.5928 16.2192 21.6621 16.0329C21.7285 15.8431 21.813 15.6604 21.9095 15.4952C22.0091 15.3194 22.1207 15.1648 22.2413 15.0242C22.362 14.8836 22.4977 14.7536 22.6456 14.6376C22.7903 14.5251 22.9442 14.4302 23.1071 14.3458C23.267 14.2685 23.4359 14.2088 23.6048 14.1701C23.7828 14.1314 23.9578 14.1103 24.1327 14.1103ZM5.33032 14.8449V25.3858C5.33032 25.9517 5.42685 26.493 5.60181 26.9886C5.78582 27.5018 6.0543 27.9657 6.38612 28.3559C6.72097 28.746 7.11916 29.0588 7.55958 29.2697C7.9819 29.4736 8.44646 29.586 8.93514 29.586H27.1433C27.629 29.586 28.0935 29.4736 28.5189 29.2697C28.9593 29.0553 29.3575 28.7425 29.6923 28.3559C30.0272 27.9657 30.2956 27.5018 30.4766 26.9886C30.6516 26.4965 30.7481 25.9552 30.7481 25.3858V13.5972C30.7481 13.0313 30.6516 12.4865 30.4766 11.9944C30.2926 11.4813 30.0241 11.0173 29.6923 10.6272C29.3575 10.237 28.9593 9.92421 28.5189 9.71332C28.0965 9.50946 27.632 9.39699 27.1433 9.39699H8.93816C8.45249 9.39699 7.98793 9.50946 7.56259 9.71332C7.12217 9.92772 6.72398 10.2405 6.38914 10.6272C6.0543 11.0173 5.78582 11.4813 5.60483 11.9944C5.42986 12.4865 5.33333 13.0278 5.33333 13.5972L5.33032 14.8449ZM4.15988 15.5233H2.07843C1.95475 15.5233 1.8371 15.5514 1.73152 15.6006C1.61991 15.6569 1.52036 15.7342 1.4359 15.8326L1.42383 15.8431C1.3454 15.938 1.27903 16.0505 1.2368 16.1735C1.19155 16.2966 1.17044 16.4336 1.17044 16.5777V23.038C1.17044 23.1821 1.19457 23.3191 1.2368 23.4422C1.28507 23.5722 1.35143 23.6882 1.4359 23.7866C1.59879 23.9764 1.82504 24.0959 2.07541 24.0959H4.15988V15.5233ZM33.9306 15.5233H31.9216V24.0959H33.9306C34.0543 24.0959 34.1719 24.0678 34.2775 24.0186C34.3891 23.9624 34.4887 23.885 34.5732 23.7866C34.6576 23.6882 34.727 23.5722 34.7722 23.4422C34.8175 23.3191 34.8386 23.1821 34.8386 23.038V16.5813C34.8386 16.4371 34.8145 16.3001 34.7722 16.1771C34.724 16.047 34.6576 15.931 34.5732 15.8326C34.4887 15.7342 34.3891 15.6533 34.2775 15.6006C34.1719 15.5549 34.0543 15.5233 33.9306 15.5233Z" fill="#06B0F4"/>
</svg>
