<svg width="32" height="35" viewBox="0 0 32 35" fill="none" xmlns="http://www.w3.org/2000/svg">
<path d="M2.22222 1.49625C2.22222 1.17809 2.10516 0.872965 1.89679 0.647992C1.68841 0.423019 1.4058 0.296631 1.11111 0.296631C0.816426 0.296631 0.533811 0.423019 0.325437 0.647992C0.117063 0.872965 0 1.17809 0 1.49625V28.8477C0 30.4385 0.585316 31.9641 1.62718 33.089C2.66905 34.2138 4.08213 34.8458 5.55556 34.8458H30.8889C31.1836 34.8458 31.4662 34.7194 31.6746 34.4944C31.8829 34.2695 32 33.9643 32 33.6462C32 33.328 31.8829 33.0229 31.6746 32.7979C31.4662 32.5729 31.1836 32.4465 30.8889 32.4465H5.55556C4.6715 32.4465 3.82365 32.0674 3.19853 31.3925C2.57341 30.7175 2.22222 29.8021 2.22222 28.8477V1.49625ZM19.5556 7.25445C19.5556 6.59225 20.0533 6.05482 20.6667 6.05482H29.5556C30.1689 6.05482 30.6667 6.59225 30.6667 7.25445V16.8514C30.6667 17.009 30.6379 17.165 30.5821 17.3105C30.5263 17.4561 30.4444 17.5883 30.3412 17.6997C30.2381 17.8111 30.1156 17.8995 29.9808 17.9597C29.846 18.02 29.7015 18.0511 29.5556 18.0511C29.4096 18.0511 29.2652 18.02 29.1304 17.9597C28.9955 17.8995 28.8731 17.8111 28.7699 17.6997C28.6667 17.5883 28.5849 17.4561 28.529 17.3105C28.4732 17.165 28.4444 17.009 28.4444 16.8514V10.1508L19.4524 19.8591C19.2504 20.0771 18.9784 20.2026 18.6929 20.2098C18.4074 20.2169 18.1303 20.1051 17.9191 19.8975L13.8142 15.8697L7.23022 22.9781C7.02182 23.2032 6.73917 23.3296 6.44444 23.3296C6.14972 23.3296 5.86707 23.2032 5.65867 22.9781C5.45027 22.7531 5.33319 22.448 5.33319 22.1298C5.33319 21.8116 5.45027 21.5064 5.65867 21.2814L12.992 13.3639C13.194 13.146 13.466 13.0204 13.7515 13.0132C14.0371 13.0061 14.3142 13.1179 14.5253 13.3255L18.6302 17.3534L26.8729 8.45407H20.6667C20.0533 8.45407 19.5556 7.91664 19.5556 7.25445Z" fill="#06B0F4"/>
</svg>
