<svg width="32" height="35" viewBox="0 0 32 35" fill="none" xmlns="http://www.w3.org/2000/svg">
<path d="M29.2049 27.8355C28.2016 27.8355 27.3057 28.4132 26.8399 29.2991L21.8231 26.2948C22.2172 25.563 22.4681 24.6772 22.4681 23.7913C22.4681 21.2492 20.7122 19.1693 18.4546 18.8612L18.8488 14.2007C18.8847 14.2007 18.9205 14.2007 18.9205 14.2007C20.3897 14.2007 21.5722 12.9297 21.5722 11.3505C21.5722 10.6572 21.3572 10.0409 20.9989 9.57875L25.0482 5.26492C25.514 5.72712 26.159 6.03525 26.8399 6.03525C28.2732 6.03525 29.4558 4.76421 29.4558 3.22356C29.4558 1.6829 28.2732 0.411865 26.8399 0.411865C25.4065 0.411865 24.224 1.6829 24.224 3.22356C24.224 3.91685 24.4748 4.57163 24.869 5.03383L20.8555 9.34765C20.3897 8.80843 19.7088 8.46178 18.9563 8.46178C17.4871 8.46178 16.3046 9.73282 16.3046 11.312C16.3046 12.7756 17.308 13.9696 18.6338 14.1622L18.2396 18.7842C18.1321 18.7842 17.9888 18.7842 17.8813 18.7842C15.8029 18.7842 14.047 20.2478 13.4737 22.2891L8.38522 21.1722C8.42105 20.9796 8.45689 20.7485 8.45689 20.5559C8.45689 18.7842 7.09519 17.3205 5.44681 17.3205C3.79843 17.3205 2.43673 18.7842 2.43673 20.5559C2.43673 21.9425 3.26092 23.1365 4.40762 23.5987L2.6159 30.2235C2.47256 30.185 2.36506 30.185 2.22172 30.185C1.00336 30.185 0 31.2634 0 32.573C0 33.8826 1.00336 34.961 2.22172 34.961C3.44009 34.961 4.44345 33.8826 4.44345 32.573C4.44345 31.4945 3.7626 30.5702 2.86674 30.3005L4.65845 23.6757C4.90929 23.7528 5.16013 23.7913 5.44681 23.7913C6.80851 23.7913 7.99104 22.7899 8.34939 21.4418L13.402 22.5588C13.2945 22.9439 13.2587 23.3676 13.2587 23.7913C13.2587 26.5259 15.3371 28.7599 17.8813 28.7599C19.4938 28.7599 20.8914 27.874 21.7156 26.5259L26.7324 29.5302C26.5532 29.9154 26.4815 30.3391 26.4815 30.7627C26.4815 32.3804 27.6999 33.7285 29.2408 33.7285C30.7458 33.7285 32 32.4189 32 30.7627C31.9642 29.1451 30.7458 27.8355 29.2049 27.8355Z" fill="#06B0F4"/>
</svg>
