<svg xmlns="http://www.w3.org/2000/svg" width="26" height="24" viewBox="0 0 26 24" fill="none">
  <path fill-rule="evenodd" clip-rule="evenodd" d="M3.24935 4H22.7493C23.0367 4 23.3122 4.10536 23.5154 4.29289C23.7185 4.48043 23.8327 4.73478 23.8327 5V19C23.8327 19.2652 23.7185 19.5196 23.5154 19.7071C23.3122 19.8946 23.0367 20 22.7493 20H3.24935C2.96203 20 2.68648 19.8946 2.48332 19.7071C2.28015 19.5196 2.16602 19.2652 2.16602 19V5C2.16602 4.73478 2.28015 4.48043 2.48332 4.29289C2.68648 4.10536 2.96203 4 3.24935 4ZM20.6163 5.914L13.1683 11.414C13.1204 11.4494 13.0608 11.4686 12.9993 11.4686C12.9379 11.4686 12.8783 11.4494 12.8303 11.414L5.38243 5.914L4.36627 7.086L11.8153 12.586C12.1514 12.8341 12.569 12.9693 12.9993 12.9693C13.4297 12.9693 13.8473 12.8341 14.1834 12.586L21.6324 7.086L20.6163 5.914Z" fill="#06B0F4"/>
</svg>