<svg width="24" height="24" viewBox="0 0 24 24" fill="none" xmlns="http://www.w3.org/2000/svg">
<circle cx="12" cy="12" r="12" fill="white"/>
<path d="M12.3429 10.1486C12.9193 9.50606 13.6698 9.08571 14.5429 9.08571C15.4597 9.08571 16.3391 9.48306 16.9874 10.1903C17.6358 10.8976 18 11.8569 18 12.8571V18H16.7429V12.8571C16.7429 12.2206 16.5111 11.6102 16.0985 11.1601C15.6859 10.71 15.1263 10.4571 14.5429 10.4571C13.9594 10.4571 13.3998 10.71 12.9872 11.1601C12.5746 11.6102 12.3429 12.2206 12.3429 12.8571V18H11.0857V9.42857H12.3429V10.1486ZM7.94286 8.05714C7.6928 8.05714 7.45298 7.94878 7.27616 7.75588C7.09934 7.56299 7 7.30137 7 7.02857C7 6.75578 7.09934 6.49416 7.27616 6.30126C7.45298 6.10837 7.6928 6 7.94286 6C8.19292 6 8.43274 6.10837 8.60956 6.30126C8.78638 6.49416 8.88571 6.75578 8.88571 7.02857C8.88571 7.30137 8.78638 7.56299 8.60956 7.75588C8.43274 7.94878 8.19292 8.05714 7.94286 8.05714ZM7.31429 9.42857H8.57143V18H7.31429V9.42857Z" fill="black"/>
</svg>