<svg width="1440" height="63" viewBox="0 0 1440 63" fill="none" xmlns="http://www.w3.org/2000/svg">
<path d="M-180 13.6333C-121.377 31.8111 -58.6232 31.8112 1.14441e-05 13.6334C58.6232 -4.5443 121.377 -4.5443 180 13.6334C238.623 31.8112 301.377 31.8112 360 13.6334C418.623 -4.5443 481.377 -4.5443 540 13.6334C598.623 31.8112 661.377 31.8112 720 13.6334C778.623 -4.5443 841.377 -4.5443 900 13.6334C958.623 31.8112 1021.38 31.8112 1080 13.6334C1138.62 -4.5443 1201.38 -4.5443 1260 13.6334C1318.62 31.8112 1381.38 31.8112 1440 13.6334V62.7273H-1440V13.6333C-1381.38 -4.54444 -1318.62 -4.54444 -1260 13.6333C-1201.38 31.8111 -1138.62 31.8111 -1080 13.6333C-1021.38 -4.54444 -958.623 -4.54444 -900 13.6333C-841.377 31.8111 -778.623 31.8111 -720 13.6333C-661.377 -4.54444 -598.623 -4.54444 -540 13.6333C-481.377 31.8111 -418.623 31.8111 -360 13.6333C-301.377 -4.54444 -238.623 -4.54444 -180 13.6333Z" fill="#111B5D"/>
</svg>
