<svg width="1440" height="93" viewBox="0 0 1440 93" fill="none" xmlns="http://www.w3.org/2000/svg">
<path d="M1260 13.6333C1318.62 31.8111 1381.38 31.8111 1440 13.6333C1498.62 -4.54444 1561.38 -4.54444 1620 13.6333C1678.62 31.8111 1741.38 31.8111 1800 13.6333C1858.62 -4.54444 1921.38 -4.54444 1980 13.6333C2038.62 31.8111 2101.38 31.8111 2160 13.6333C2218.62 -4.54444 2281.38 -4.54444 2340 13.6333C2398.62 31.8111 2461.38 31.8111 2520 13.6333C2578.62 -4.54444 2641.38 -4.54444 2700 13.6333C2758.62 31.8111 2821.38 31.8111 2880 13.6333V92.7273H0V13.6333C58.6232 -4.54444 121.377 -4.54444 180 13.6333C238.623 31.8111 301.377 31.8111 360 13.6333C418.623 -4.54444 481.377 -4.54444 540 13.6333C598.623 31.8111 661.377 31.8111 720 13.6333C778.623 -4.54444 841.377 -4.54444 900 13.6333C958.623 31.8111 1021.38 31.8111 1080 13.6333C1138.62 -4.54444 1201.38 -4.54444 1260 13.6333Z" fill="#1D2B77"/>
</svg>
