<svg xmlns="http://www.w3.org/2000/svg" width="77" height="77" viewBox="0 0 77 77" fill="none">
  <path d="M31 38.001L38 31.001M38 31.001L45 38.001M38 31.001V45.001" stroke="#FFFAFA" stroke-opacity="0.63" stroke-linecap="round" stroke-linejoin="round"/>
  <path d="M76.5 38.25C76.5 59.3749 59.3749 76.5 38.25 76.5C17.1251 76.5 0 59.3749 0 38.25C0 17.1251 17.1251 0 38.25 0C59.3749 0 76.5 17.1251 76.5 38.25Z" fill="#D9D9D9" fill-opacity="0.1"/>
  <path d="M64.1098 16.2508C63.9181 24.5763 52.3278 31.0621 38.222 30.7373C24.1164 30.4125 12.8368 23.4001 13.0285 15.0746C13.2202 6.74914 24.8106 0.263296 38.9163 0.588088C53.022 0.91288 64.3015 7.92531 64.1098 16.2508Z" fill="#D9D9D9" fill-opacity="0.1"/>
  <path d="M34.3935 6.27443C35.1265 8.10512 32.6021 10.838 28.755 12.3784C24.908 13.9189 21.1951 13.6836 20.462 11.8529C19.729 10.0222 22.2534 7.28934 26.1004 5.74889C29.9475 4.20844 33.6604 4.44373 34.3935 6.27443Z" fill="#D9D9D9" fill-opacity="0.1"/>
</svg>