<svg xmlns="http://www.w3.org/2000/svg" width="32" height="35" viewBox="0 0 32 35" fill="none">
  <path d="M31.4667 29.9102H30.9333V10.7847C30.9324 10.2435 30.8088 9.71195 30.5748 9.24321C30.3409 8.77447 30.0048 8.38489 29.6 8.11334L29.0667 9.18066C29.3095 9.34392 29.5111 9.57792 29.6515 9.85935C29.7919 10.1408 29.866 10.4598 29.8667 10.7847V29.9102H20.4875C20.1781 29.9091 19.8717 29.9791 19.5858 30.116C19.3 30.253 19.0405 30.4541 18.8224 30.7079C18.7033 30.8466 18.5615 30.9567 18.4053 31.0315C18.2491 31.1064 18.0816 31.1447 17.9125 31.1441H14.0875C13.9184 31.1447 13.7509 31.1064 13.5947 31.0315C13.4385 30.9567 13.2967 30.8466 13.1776 30.7079C12.9595 30.4541 12.7 30.253 12.4142 30.116C12.1283 29.9791 11.8219 29.9091 11.5125 29.9102H2.13333V10.7847C2.13396 10.4598 2.20815 10.1408 2.3485 9.85935C2.48886 9.57792 2.6905 9.34392 2.93333 9.18066L2.4 8.11334C1.99524 8.38489 1.65912 8.77447 1.42516 9.24321C1.1912 9.71195 1.06759 10.2435 1.06667 10.7847V29.9102H0.533333C0.391885 29.9102 0.256229 29.9752 0.15621 30.0909C0.0561903 30.2066 0 30.3635 0 30.5271V32.378C0 33.0325 0.224761 33.6601 0.624839 34.1229C1.02492 34.5857 1.56754 34.8457 2.13333 34.8457H29.8667C30.4325 34.8457 30.9751 34.5857 31.3752 34.1229C31.7752 33.6601 32 33.0325 32 32.378V30.5271C32 30.3635 31.9438 30.2066 31.8438 30.0909C31.7438 29.9752 31.6081 29.9102 31.4667 29.9102ZM30.9333 32.378C30.9333 32.7052 30.821 33.0191 30.6209 33.2505C30.4209 33.4819 30.1496 33.6119 29.8667 33.6119H2.13333C1.85044 33.6119 1.57912 33.4819 1.37909 33.2505C1.17905 33.0191 1.06667 32.7052 1.06667 32.378V31.1441H11.5125C11.6816 31.1435 11.8491 31.1817 12.0053 31.2566C12.1615 31.3315 12.3033 31.4415 12.4224 31.5802C12.6403 31.8337 12.8994 32.0346 13.1849 32.1716C13.4703 32.3085 13.7763 32.3786 14.0853 32.378H17.9147C18.2237 32.3786 18.5297 32.3085 18.8151 32.1716C19.1006 32.0346 19.3597 31.8337 19.5776 31.5802C19.6967 31.4415 19.8385 31.3315 19.9947 31.2566C20.1509 31.1817 20.3184 31.1435 20.4875 31.1441H30.9333V32.378Z" fill="#08AFF5"/>
  <path d="M27.2001 3.38138V28.6763H28.2667V3.38138C28.2667 2.56325 27.9858 1.77863 27.4857 1.20013C26.9856 0.62163 26.3073 0.296631 25.6001 0.296631H6.40006C5.69308 0.29761 5.0153 0.622924 4.51538 1.20121C4.01547 1.7795 3.73425 2.56355 3.7334 3.38138V28.6763H4.80007V3.38138C4.80007 2.8905 4.96864 2.41973 5.26869 2.07263C5.56875 1.72553 5.97572 1.53053 6.40006 1.53053H25.6001C26.0244 1.53053 26.4314 1.72553 26.7314 2.07263C27.0315 2.41973 27.2001 2.8905 27.2001 3.38138Z" fill="#08AFF5"/>
  <path d="M7.46706 2.76434H6.40039V3.99824H7.46706V2.76434Z" fill="#08AFF5"/>
  <path d="M9.59987 2.76434H8.5332V3.99824H9.59987V2.76434Z" fill="#08AFF5"/>
  <path d="M11.7337 2.76434H10.667V3.99824H11.7337V2.76434Z" fill="#08AFF5"/>
  <path d="M25.6004 5.2323H6.40039V6.4662H25.6004V5.2323Z" fill="#08AFF5"/>
  <path d="M22.813 10.2913L16.0002 7.66681L9.18741 10.2913L6.89941 17.5713L9.18741 24.8513L16.0002 27.4758L22.813 24.8513L25.101 17.5713L22.813 10.2913ZM23.773 16.9544H22.7517L21.2903 13.0096C21.27 12.9626 21.2445 12.9189 21.2146 12.8794L22.1746 11.8639L23.773 16.9544ZM15.4669 16.169L13.2487 13.8166L15.4669 11.9836V16.169ZM15.4669 22.4347L12.5559 22.0609L15.4669 18.9761V22.4347ZM16.5335 18.9736L19.0231 21.6136L16.5335 22.3335V18.9736ZM16.5335 11.7337L19.3501 13.1823L16.5335 16.169V11.7337ZM20.2077 12.273L16.5335 10.3839V9.17278L21.3714 11.0384L20.2077 12.273ZM15.4669 10.4678L12.445 12.9646L10.629 11.0384L15.4669 9.17278V10.4678ZM14.629 16.9544H12.8002V15.0153L14.629 16.9544ZM14.629 18.1883L12.1069 20.8646L12.6834 18.1883H14.629ZM11.5117 23.1677L15.4669 23.6791V25.9729L10.629 24.1073L11.5117 23.1677ZM16.5335 23.6051L19.9655 22.613L21.3714 24.1042L16.5335 25.9698V23.6051ZM17.3714 18.1883H21.4813L20.0685 21.0484L17.3714 18.1883ZM17.3714 16.9544L20.4013 13.7419L21.5911 16.9544H17.3714ZM9.82848 11.8639L11.7335 13.8838V16.9544H8.22848L9.82848 11.8639ZM8.22848 18.1883H11.5837L10.6829 22.3576C10.6829 22.3625 10.6829 22.3681 10.6829 22.373L9.82955 23.2787L8.22848 18.1883ZM22.1719 23.2787L20.8749 21.9029L22.7095 18.1883H23.7719L22.1719 23.2787Z" fill="#08AFF5"/>
  <path d="M8.00039 8.9339H6.40039V10.1678H8.00039V8.9339Z" fill="#08AFF5"/>
  <path d="M22.9331 7.70001H20.7998V8.93391H22.9331V7.70001Z" fill="#08AFF5"/>
  <path d="M25.6 10.1678H24V11.4017H25.6V10.1678Z" fill="#08AFF5"/>
  <path d="M6.93385 14.4864H5.86719V15.7203H6.93385V14.4864Z" fill="#08AFF5"/>
  <path d="M8.00052 23.7407H5.86719V24.9746H8.00052V23.7407Z" fill="#08AFF5"/>
  <path d="M19.1997 28.0594H17.0664V29.2933H19.1997V28.0594Z" fill="#08AFF5"/>
  <path d="M25.0669 25.5914H22.9336V26.8253H25.0669V25.5914Z" fill="#08AFF5"/>
  <path d="M26.1331 20.0389H25.0664V21.2728H26.1331V20.0389Z" fill="#08AFF5"/>
</svg>