<svg width="33" height="39" viewBox="0 0 33 39" fill="none" xmlns="http://www.w3.org/2000/svg">
<path fill-rule="evenodd" clip-rule="evenodd" d="M16.4997 0.296631C18.2223 0.296631 19.6857 2.55103 20.6613 6.19393C20.9997 7.45874 21.2894 8.90291 21.518 10.4832C22.9814 9.89559 24.3595 9.42863 25.6064 9.09155C29.201 8.12671 31.8564 8.28752 32.7193 9.79972C33.579 11.3119 32.3869 13.724 29.765 16.399C28.8564 17.3267 27.768 18.304 26.5302 19.2966C27.0241 19.6925 27.4967 20.0883 27.9418 20.4779C27.5363 20.7655 27.204 21.1459 26.9723 21.5912C26.4601 21.1428 25.9113 20.6882 25.3321 20.2275C25.2132 20.3171 25.0912 20.4068 24.9693 20.4996C24.7071 22.4138 23.829 24.127 22.5455 25.429L22.4723 25.497C22.2467 25.7196 22.0119 25.9299 21.765 26.1248C21.7497 26.2794 21.7314 26.434 21.7132 26.5886C23.2467 27.2195 24.6857 27.7143 25.9784 28.0606C28.9083 28.8461 30.9601 28.9049 31.4479 28.0514C31.7071 27.5968 31.5241 26.8824 30.9784 25.9856C31.4205 25.7908 31.8107 25.4939 32.1217 25.1259C33.0028 26.5886 33.2497 27.8596 32.7193 28.7904C31.8595 30.3057 29.2071 30.4666 25.6095 29.5017C24.3625 29.1677 22.9845 28.6977 21.518 28.1101C21.2894 29.6904 20.9997 31.1345 20.6613 32.3993C19.6857 36.0422 18.2223 38.2966 16.4997 38.2966C14.7772 38.2966 13.3138 36.0422 12.3382 32.3993C11.9997 31.1345 11.7101 29.6904 11.4814 28.1101C10.951 28.3235 10.4327 28.5214 9.92962 28.7008C9.88998 28.1843 9.7284 27.705 9.47535 27.2875C10.0607 27.0772 10.6644 26.8453 11.2863 26.5886C11.268 26.4371 11.2528 26.2825 11.2345 26.1278C10.9632 25.9114 10.704 25.6794 10.4601 25.432L10.454 25.4259C9.17047 24.1239 8.29242 22.4107 8.03023 20.4965C7.90828 20.4068 7.78632 20.314 7.66742 20.2244C6.3595 21.2572 5.2162 22.2747 4.27413 23.2364C2.13389 25.4259 1.05767 27.2009 1.54547 28.0575C1.81681 28.5338 2.57291 28.7255 3.69486 28.6667C3.68571 28.7595 3.68267 28.8554 3.68267 28.9513C3.68267 29.3564 3.75889 29.7429 3.89303 30.0986C2.1034 30.179 0.825959 29.7646 0.277178 28.7997C-0.582578 27.2844 0.609495 24.8723 3.23145 22.1973C4.14303 21.2696 5.2284 20.2924 6.4662 19.2997C5.23145 18.307 4.14303 17.3298 3.23145 16.4021C0.609495 13.7271 -0.582578 11.315 0.277178 9.80282C1.13998 8.29061 3.79242 8.1298 7.38998 9.09465C8.63693 9.42863 10.015 9.89559 11.4814 10.4862C11.5638 9.91414 11.6552 9.3606 11.7528 8.8287C12.1766 9.04517 12.6522 9.16577 13.1583 9.16577H13.1857C13.0729 9.77498 12.9723 10.4151 12.8808 11.0769C13.018 11.1357 13.1522 11.1975 13.2894 11.2594C14.2802 10.8512 15.3625 10.6254 16.4967 10.6254C17.6308 10.6254 18.7162 10.8512 19.7071 11.2563C19.8412 11.1944 19.9784 11.1357 20.1125 11.0769C19.8839 9.41008 19.5882 7.89787 19.2375 6.58976C18.4449 3.6272 17.4693 1.79338 16.4967 1.79338C15.9571 1.79338 15.4144 2.35929 14.9052 3.36743C14.5119 3.09839 14.0577 2.91593 13.5638 2.85099C14.3961 1.22127 15.393 0.296631 16.4997 0.296631ZM16.4997 14.2745C18.6522 14.2745 20.3991 15.1033 20.3991 16.1238C20.3991 17.1474 18.6522 17.9731 16.4997 17.9731C14.3473 17.9731 12.6003 17.1443 12.6003 16.1238C12.6003 15.1033 14.3473 14.2745 16.4997 14.2745ZM12.6003 21.2139V22.6334C13.2955 25.1321 20.1461 24.6497 20.3991 22.5066V21.0872C20.0577 23.4405 13.1491 23.6106 12.6003 21.2139ZM12.5821 17.0144V18.4029C13.2772 20.8429 20.1674 20.5151 20.4205 18.4215V17.0361C20.076 19.3337 13.1308 19.3554 12.5821 17.0144ZM12.5821 19.0585V20.4779C13.2772 22.9766 20.1674 22.6396 20.4205 20.4965V19.0771C20.076 21.4304 13.1308 21.4552 12.5821 19.0585ZM16.4997 11.8655C20.5455 11.8655 23.826 15.193 23.826 19.2966C23.826 23.4003 20.5455 26.7278 16.4997 26.7278C12.454 26.7278 9.17352 23.4003 9.17352 19.2966C9.17352 15.193 12.454 11.8655 16.4997 11.8655ZM21.765 12.4623C22.0394 12.6788 22.3016 12.9138 22.5455 13.1643C23.829 14.4662 24.7071 16.1825 24.9693 18.0968C25.0912 18.1864 25.2132 18.2761 25.3321 18.3689C26.64 17.336 27.7833 16.3186 28.7253 15.3569C30.8595 13.1767 31.9357 11.4016 31.451 10.545C30.9632 9.69149 28.9113 9.75025 25.9814 10.5357C24.6888 10.8821 23.2497 11.3769 21.7162 12.0108C21.7314 12.1562 21.7497 12.3108 21.765 12.4623ZM19.6979 27.3432C18.7101 27.7483 17.6308 27.9709 16.5028 27.9709C15.3717 27.9709 14.2924 27.7483 13.3046 27.3401C13.1644 27.4019 13.0241 27.4669 12.8839 27.5256C13.1125 29.1925 13.4083 30.7047 13.7589 32.0128C14.5516 34.9753 15.5272 36.8092 16.5028 36.8092C17.4753 36.8092 18.454 34.9753 19.2436 32.0128C19.5912 30.7047 19.8869 29.1894 20.1156 27.5256C19.9753 27.4669 19.8351 27.405 19.6979 27.3432ZM8.03328 18.0906C8.29547 16.1794 9.17352 14.4631 10.4571 13.1643L10.5302 13.0963C10.7528 12.8767 10.9875 12.6664 11.2314 12.4716C11.2467 12.317 11.265 12.1624 11.2833 12.0077C9.74669 11.3769 8.31071 10.8821 7.01803 10.5326C4.08815 9.74715 2.03632 9.6884 1.54852 10.5419C1.05767 11.3985 2.13389 13.1736 4.27108 15.3538C5.21315 16.3155 6.35645 17.3329 7.66437 18.3658C7.78632 18.273 7.90828 18.1834 8.03328 18.0906ZM29.5119 20.9387C30.6308 20.9387 31.5394 21.8603 31.5394 22.9952C31.5394 24.1301 30.6308 25.0517 29.5119 25.0517C28.393 25.0517 27.4845 24.1301 27.4845 22.9952C27.4845 21.8603 28.39 20.9387 29.5119 20.9387ZM6.81376 26.8298C7.93267 26.8298 8.8412 27.7514 8.8412 28.8863C8.8412 30.0212 7.93267 30.9428 6.81376 30.9428C5.69486 30.9428 4.78632 30.0212 4.78632 28.8863C4.78632 27.7514 5.69486 26.8298 6.81376 26.8298ZM13.1552 3.93335C14.2741 3.93335 15.1827 4.8549 15.1827 5.98983C15.1827 7.12476 14.2741 8.04631 13.1552 8.04631C12.0363 8.04631 11.1278 7.12476 11.1278 5.98983C11.1278 4.8549 12.0363 3.93335 13.1552 3.93335Z" fill="#06B0F4"/>
</svg>
