<svg xmlns="http://www.w3.org/2000/svg" width="24" height="24" viewBox="0 0 24 24" fill="none">
  <path d="M18.2695 6C19.2795 8.17 19.0495 10.73 17.9395 12.81C16.9995 14.5 15.6495 15.93 14.4995 17.5C13.9995 18.2 13.4995 18.95 13.1295 19.76C12.9995 20.03 12.9095 20.31 12.8095 20.59C12.7095 20.87 12.6195 21.15 12.5295 21.43C12.4395 21.69 12.3295 22 11.9995 22C11.6095 22 11.4995 21.56 11.4195 21.26C11.1795 20.53 10.9395 19.83 10.5695 19.16C10.1495 18.37 9.61947 17.64 9.07947 16.93L18.2695 6ZM9.11947 8.42L5.81947 12.34C6.42947 13.63 7.33947 14.73 8.20947 15.83C8.41947 16.08 8.62947 16.34 8.82947 16.61L12.9995 11.67L12.9595 11.68C11.4995 12.18 9.87947 11.44 9.29947 10C9.21947 9.83 9.15947 9.63 9.11947 9.43C9.06352 9.09901 9.06352 8.76099 9.11947 8.43V8.42ZM6.57947 4.62L6.56947 4.63C4.94947 6.68 4.66947 9.53 5.63947 11.94L9.62947 7.2L9.57947 7.15L6.57947 4.62ZM14.2195 2.36L10.9995 6.17L11.0395 6.16C12.3795 5.7 13.8795 6.28 14.5595 7.5C14.7095 7.78 14.8295 8.08 14.8695 8.38C14.9295 8.76 14.9495 9.03 14.8795 9.4V9.41L18.0795 5.61C17.2421 4.09013 15.87 2.93546 14.2295 2.37L14.2195 2.36ZM9.88947 6.89L13.7995 2.24L13.7595 2.23C13.1795 2.08 12.5895 2 11.9995 2C10.0295 2 8.16947 2.85 6.84947 4.31L6.82947 4.32L9.88947 6.89Z" fill="#06B0F4"/>
</svg>