<svg width="120" height="43" viewBox="0 0 120 43" fill="none" xmlns="http://www.w3.org/2000/svg">
<path d="M21.7917 28.0754C22.1143 24.6531 21.3617 20.8172 21.7917 17.4363C22.1261 14.0793 21.7238 10.4524 21.7917 6.79722C22.2821 4.19422 19.778 -0.013602 17.3608 2.58592C14.9259 5.22204 17.2387 9.22057 16.5617 12.4123C15.8847 15.604 17.0993 19.8774 16.5617 23.0514C16.0271 26.2254 19.0634 28.2734 21.7917 28.0754Z" fill="#06B0F4"/>
<path d="M0 3.25083V29.2575C2.49298 32.8157 6.08136 30.2209 5.52058 26.3022C5.52058 22.4603 5.70073 17.8766 5.81114 14.1854C9.7569 20.2556 12.3719 32.6324 21.5012 31.9172C30.6305 31.2021 36.369 25.2501 43.5109 20.3177C50.6528 15.3823 56.432 10.713 64.8581 8.04433C73.2872 5.37865 85.3395 5.8249 93.3327 9.39194C101.326 12.956 107.343 16.6058 113.608 22.7558C105.426 32.7477 94.585 41.188 81.937 42.8519C96.6857 44.3384 110.417 34.4233 119.128 22.7558C119.285 22.4189 119.608 22.2239 119.709 21.8692C119.253 21.5855 118.765 21.1836 118.547 20.6871C106.742 11.2065 94.7651 0.990026 79.322 0H74.092C68.6557 0.6413 61.9351 2.52383 57.1525 5.23088C52.3671 7.93498 48.2702 11.0646 44.2373 14.5549C40.2044 18.0421 36.5898 21.816 32.4552 24.7359C28.3206 27.6557 20.7864 31.4562 16.7797 27.2626C12.7758 23.0661 12.2179 16.1684 10.2596 11.4341C8.29831 6.69966 5.55545 -1.26191 0 3.25083Z" fill="#06B0F4"/>
<path d="M21.937 28.0754C22.2596 24.6531 21.937 20.6871 21.937 17.4363C21.6465 14.3332 22.0823 10.3308 21.6465 6.7972C21.9308 3.40789 19.1606 0.0362015 16.925 2.59863C14.4901 5.23476 15.6901 9.16143 15.6902 12.425C15.6902 15.3676 15.8353 19.9483 16.1259 23.0641C15.5913 26.2381 19.2087 28.2734 21.937 28.0754Z" fill="#06B0F4"/>
<path d="M42.1308 14.7765C34.5618 8.99298 22.5444 17.2974 26.4407 26.5977C28.1637 26.4293 29.5235 25.0669 31.0896 24.529C29.9972 22.0879 31.9991 17.9505 34.8669 17.7318C37.7347 17.5131 40.9163 18.3672 42.1308 14.7765Z" fill="#06B0F4"/>
<path d="M73.5108 14.1854C72.52 14.082 71.3055 14.082 70.3147 14.1854C67.813 14.9508 66.3224 16.3723 64.1171 14.5785C61.9147 12.7846 58.8697 14.3805 56.6585 14.7765C53.2183 12.4181 52.4774 16.1921 52.5907 19.5049C52.704 22.8178 52.9074 26.5504 52.5907 30.144C52.274 33.7377 57.0333 34.4469 57.5302 31.0306C58.0271 27.6143 56.8939 23.7103 57.5534 20.7107C58.213 17.7111 63.1321 17.8441 63.8266 20.7846C64.521 23.7251 63.2193 28.0369 63.9312 31.3173C64.6401 34.6006 68.7602 33.383 68.8619 30.144C68.9636 26.905 67.7462 22.738 69.2251 19.8744C70.7011 17.0107 75.167 19.0055 74.9636 22.1647C75.1774 25.2732 74.4293 28.9459 75.3268 32.1389C76.7941 35.2626 80.339 32.6059 79.9031 28.6664C79.9031 25.8589 80.339 21.8692 79.3946 18.5445C77.7326 15.7813 76.4135 14.8385 73.5108 14.1854Z" fill="#06B0F4"/>
<path d="M73.5108 14.1854C72.52 14.082 71.3055 14.082 70.3147 14.1854C71.4188 13.9372 72.4241 13.9401 73.5108 14.1854Z" fill="#06B0F4"/>
<path d="M96.7555 13.8899C88.893 12.5925 81.7279 20.1492 85.1565 27.4606C88.5821 34.775 97.1449 34.9848 102.349 29.9224C107.553 24.86 103.761 15.0484 96.7555 13.8899ZM95.8838 18.6184C102.453 20.0014 99.4083 30.5016 92.9783 28.3709C86.5482 26.2401 89.5468 17.2826 95.8838 18.6184Z" fill="#06B0F4"/>
<path d="M119.128 22.7558C119.329 22.5401 119.768 22.3805 120 22.1648V21.5737C119.419 21.5648 118.986 21.0388 118.547 20.6871C118.765 21.1836 119.253 21.5855 119.709 21.8692C119.608 22.2239 119.285 22.4189 119.128 22.7558Z" fill="#06B0F4"/>
<path d="M29.9274 30.4396C32.0862 32.7802 35.0964 32.8659 38.1588 32.6059C41.2184 32.3428 42.5666 31.1784 44.8184 28.7403C46.7797 26.6168 46.8378 22.6317 43.6068 23.075C40.3729 23.5153 41.3375 28.0665 37.9671 27.9778C34.5966 27.8892 32.7138 29.0152 29.9274 30.4396Z" fill="#06B0F4"/>
</svg>
