<svg width="1224" height="421" viewBox="0 0 1224 421" fill="none" xmlns="http://www.w3.org/2000/svg">
<path d="M761 207.5C761 221.583 749.583 233 735.5 233C721.417 233 710 221.583 710 207.5C710 193.417 721.417 182 735.5 182C749.583 182 761 193.417 761 207.5Z" fill="url(#paint0_radial_132_1062)"/>
<path d="M752.74 192.834C752.612 198.384 744.885 202.708 735.481 202.492C726.078 202.275 718.558 197.6 718.686 192.05C718.813 186.499 726.54 182.176 735.944 182.392C745.348 182.609 752.868 187.284 752.74 192.834Z" fill="url(#paint1_linear_132_1062)"/>
<path d="M732.929 186.183C733.418 187.403 731.735 189.225 729.17 190.252C726.605 191.279 724.13 191.122 723.641 189.902C723.153 188.681 724.836 186.86 727.4 185.833C729.965 184.806 732.44 184.962 732.929 186.183Z" fill="#D9D9D9" fill-opacity="0.02"/>
<path d="M51 343.5C51 357.583 39.5833 369 25.5 369C11.4167 369 0 357.583 0 343.5C0 329.417 11.4167 318 25.5 318C39.5833 318 51 329.417 51 343.5Z" fill="url(#paint2_radial_132_1062)"/>
<path d="M42.7399 328.834C42.6121 334.384 34.8852 338.708 25.4814 338.492C16.0776 338.275 8.55788 333.6 8.68568 328.05C8.81348 322.499 16.5404 318.176 25.9442 318.392C35.348 318.609 42.8677 323.284 42.7399 328.834Z" fill="url(#paint3_linear_132_1062)"/>
<path d="M22.929 322.183C23.4177 323.403 21.7347 325.225 19.17 326.252C16.6053 327.279 14.13 327.122 13.6413 325.902C13.1526 324.681 14.8356 322.86 17.4003 321.833C19.965 320.806 22.4403 320.962 22.929 322.183Z" fill="#D9D9D9" fill-opacity="0.02"/>
<path d="M525 395.5C525 409.583 513.583 421 499.5 421C485.417 421 474 409.583 474 395.5C474 381.417 485.417 370 499.5 370C513.583 370 525 381.417 525 395.5Z" fill="url(#paint4_radial_132_1062)"/>
<path d="M516.74 380.834C516.612 386.384 508.885 390.708 499.481 390.492C490.078 390.275 482.558 385.6 482.686 380.05C482.813 374.499 490.54 370.176 499.944 370.392C509.348 370.609 516.868 375.284 516.74 380.834Z" fill="url(#paint5_linear_132_1062)"/>
<path d="M496.929 374.183C497.418 375.403 495.735 377.225 493.17 378.252C490.605 379.279 488.13 379.122 487.641 377.902C487.153 376.681 488.836 374.86 491.4 373.833C493.965 372.806 496.44 372.962 496.929 374.183Z" fill="#D9D9D9" fill-opacity="0.02"/>
<path d="M315 326.5C315 340.583 303.583 352 289.5 352C275.417 352 264 340.583 264 326.5C264 312.417 275.417 301 289.5 301C303.583 301 315 312.417 315 326.5Z" fill="url(#paint6_radial_132_1062)"/>
<path d="M306.74 311.834C306.612 317.384 298.885 321.708 289.481 321.492C280.078 321.275 272.558 316.6 272.686 311.05C272.813 305.499 280.54 301.176 289.944 301.392C299.348 301.609 306.868 306.284 306.74 311.834Z" fill="url(#paint7_linear_132_1062)"/>
<path d="M286.929 305.183C287.418 306.403 285.735 308.225 283.17 309.252C280.605 310.279 278.13 310.122 277.641 308.902C277.153 307.681 278.836 305.86 281.4 304.833C283.965 303.806 286.44 303.962 286.929 305.183Z" fill="#D9D9D9" fill-opacity="0.02"/>
<path d="M422 395.5C422 409.583 410.583 421 396.5 421C382.417 421 371 409.583 371 395.5C371 381.417 382.417 370 396.5 370C410.583 370 422 381.417 422 395.5Z" fill="url(#paint8_radial_132_1062)"/>
<path d="M413.74 380.834C413.612 386.384 405.885 390.708 396.481 390.492C387.078 390.275 379.558 385.6 379.686 380.05C379.813 374.499 387.54 370.176 396.944 370.392C406.348 370.609 413.868 375.284 413.74 380.834Z" fill="url(#paint9_linear_132_1062)"/>
<path d="M393.929 374.183C394.418 375.403 392.735 377.225 390.17 378.252C387.605 379.279 385.13 379.122 384.641 377.902C384.153 376.681 385.836 374.86 388.4 373.833C390.965 372.806 393.44 372.962 393.929 374.183Z" fill="#D9D9D9" fill-opacity="0.02"/>
<path d="M499 156.5C499 170.583 487.583 182 473.5 182C459.417 182 448 170.583 448 156.5C448 142.417 459.417 131 473.5 131C487.583 131 499 142.417 499 156.5Z" fill="url(#paint10_radial_132_1062)"/>
<path d="M490.74 141.834C490.612 147.384 482.885 151.708 473.481 151.492C464.078 151.275 456.558 146.6 456.686 141.05C456.813 135.499 464.54 131.176 473.944 131.392C483.348 131.609 490.868 136.284 490.74 141.834Z" fill="url(#paint11_linear_132_1062)"/>
<path d="M470.929 135.183C471.418 136.403 469.735 138.225 467.17 139.252C464.605 140.279 462.13 140.122 461.641 138.902C461.153 137.681 462.836 135.86 465.4 134.833C467.965 133.806 470.44 133.962 470.929 135.183Z" fill="#D9D9D9" fill-opacity="0.02"/>
<defs>
<radialGradient id="paint0_radial_132_1062" cx="0" cy="0" r="1" gradientUnits="userSpaceOnUse" gradientTransform="translate(735.5 207.5) rotate(90) scale(25.5)">
<stop offset="0.854167" stop-color="#C4C4C4" stop-opacity="0"/>
<stop offset="1" stop-color="#F1FCFF" stop-opacity="0.04"/>
</radialGradient>
<linearGradient id="paint1_linear_132_1062" x1="735.5" y1="182" x2="735.5" y2="233" gradientUnits="userSpaceOnUse">
<stop offset="0.885417" stop-color="white" stop-opacity="0.02"/>
</linearGradient>
<radialGradient id="paint2_radial_132_1062" cx="0" cy="0" r="1" gradientUnits="userSpaceOnUse" gradientTransform="translate(25.5 343.5) rotate(90) scale(25.5)">
<stop offset="0.854167" stop-color="#C4C4C4" stop-opacity="0"/>
<stop offset="1" stop-color="#F1FCFF" stop-opacity="0.04"/>
</radialGradient>
<linearGradient id="paint3_linear_132_1062" x1="25.5" y1="318" x2="25.5" y2="369" gradientUnits="userSpaceOnUse">
<stop offset="0.885417" stop-color="white" stop-opacity="0.02"/>
</linearGradient>
<radialGradient id="paint4_radial_132_1062" cx="0" cy="0" r="1" gradientUnits="userSpaceOnUse" gradientTransform="translate(499.5 395.5) rotate(90) scale(25.5)">
<stop offset="0.854167" stop-color="#C4C4C4" stop-opacity="0"/>
<stop offset="1" stop-color="#F1FCFF" stop-opacity="0.04"/>
</radialGradient>
<linearGradient id="paint5_linear_132_1062" x1="499.5" y1="370" x2="499.5" y2="421" gradientUnits="userSpaceOnUse">
<stop offset="0.885417" stop-color="white" stop-opacity="0.02"/>
</linearGradient>
<radialGradient id="paint6_radial_132_1062" cx="0" cy="0" r="1" gradientUnits="userSpaceOnUse" gradientTransform="translate(289.5 326.5) rotate(90) scale(25.5)">
<stop offset="0.854167" stop-color="#C4C4C4" stop-opacity="0"/>
<stop offset="1" stop-color="#F1FCFF" stop-opacity="0.04"/>
</radialGradient>
<linearGradient id="paint7_linear_132_1062" x1="289.5" y1="301" x2="289.5" y2="352" gradientUnits="userSpaceOnUse">
<stop offset="0.885417" stop-color="white" stop-opacity="0.02"/>
</linearGradient>
<radialGradient id="paint8_radial_132_1062" cx="0" cy="0" r="1" gradientUnits="userSpaceOnUse" gradientTransform="translate(396.5 395.5) rotate(90) scale(25.5)">
<stop offset="0.854167" stop-color="#C4C4C4" stop-opacity="0"/>
<stop offset="1" stop-color="#F1FCFF" stop-opacity="0.04"/>
</radialGradient>
<linearGradient id="paint9_linear_132_1062" x1="396.5" y1="370" x2="396.5" y2="421" gradientUnits="userSpaceOnUse">
<stop offset="0.885417" stop-color="white" stop-opacity="0.02"/>
</linearGradient>
<radialGradient id="paint10_radial_132_1062" cx="0" cy="0" r="1" gradientUnits="userSpaceOnUse" gradientTransform="translate(473.5 156.5) rotate(90) scale(25.5)">
<stop offset="0.854167" stop-color="#C4C4C4" stop-opacity="0"/>
<stop offset="1" stop-color="#F1FCFF" stop-opacity="0.04"/>
</radialGradient>
<linearGradient id="paint11_linear_132_1062" x1="473.5" y1="131" x2="473.5" y2="182" gradientUnits="userSpaceOnUse">
<stop offset="0.885417" stop-color="white" stop-opacity="0.02"/>
</linearGradient>
</defs>
</svg>
